Amstelvar-Italic_wght1000_wdth50.ufo
<glyph name="slash" format="2">
	<unicode hex="002F"/>
	<advance width="634"/>
	<outline>
		<contour>
			<point x="-138" y="-73" type="line"/>
			<point x="479" y="1605" type="line"/>
			<point x="770" y="1520" type="line"/>
			<point x="154" y="-156" type="line"/>
		</contour>
	</outline>
</glyph>
<glyph name="X" format="2">
  <advance width="1269"/>
  <unicode hex="0058"/>
  <outline>
    <contour>
      <point x="-175" y="0" type="line"/>
      <point x="-157" y="126" type="line"/>
      <point x="-40" y="155" type="line"/>
      <point x="396" y="665" type="line"/>
      <point x="236" y="1325" type="line"/>
      <point x="128" y="1361" type="line"/>
      <point x="149" y="1500" type="line"/>
      <point x="819" y="1500" type="line"/>
      <point x="798" y="1361" type="line"/>
      <point x="741" y="1327" type="line"/>
      <point x="775" y="1191" type="line"/>
      <point x="798" y="1082" type="line"/>
      <point x="808" y="1082" type="line"/>
      <point x="894" y="1191" type="line"/>
      <point x="1001" y="1320" type="line"/>
      <point x="905" y="1361" type="line"/>
      <point x="926" y="1500" type="line"/>
      <point x="1347" y="1500" type="line"/>
      <point x="1326" y="1361" type="line"/>
      <point x="1206" y="1325" type="line"/>
      <point x="848" y="905" type="line"/>
      <point x="1039" y="156" type="line"/>
      <point x="1141" y="126" type="line"/>
      <point x="1123" y="0" type="line"/>
      <point x="424" y="0" type="line"/>
      <point x="442" y="126" type="line"/>
      <point x="518" y="155" type="line"/>
      <point x="469" y="358" type="line"/>
      <point x="444" y="485" type="line"/>
      <point x="434" y="485" type="line"/>
      <point x="332" y="358" type="line"/>
      <point x="165" y="161" type="line"/>
      <point x="292" y="126" type="line"/>
      <point x="274" y="0" type="line"/>
    </contour>
  </outline>
</glyph>
<glyph name="v" format="2">
	<unicode hex="0076"/>
	<advance width="1084"/>
	<outline>
		<contour>
			<point x="153" y="-8" type="line"/>
			<point x="110" y="525" type="line"/>
			<point x="86" y="802" type="line"/>
			<point x="-40" y="799" type="line"/>
			<point x="-37" y="931" type="line"/>
			<point x="358" y="1051" type="line"/>
			<point x="549" y="1051" type="line"/>
			<point x="568" y="584" type="line"/>
			<point x="581" y="379" type="line"/>
			<point x="587" y="265" type="line"/>
			<point x="597" y="265" type="line"/>
			<point x="671" y="379" type="line"/>
			<point x="769" y="520"/>
			<point x="795" y="615"/>
			<point x="795" y="669" type="qcurve" smooth="yes"/>
			<point x="795" y="711"/>
			<point x="695" y="839"/>
			<point x="695" y="908" type="qcurve" smooth="yes"/>
			<point x="695" y="989"/>
			<point x="779" y="1077"/>
			<point x="858" y="1077" type="qcurve" smooth="yes"/>
			<point x="946" y="1077"/>
			<point x="1042" y="974"/>
			<point x="1038" y="861" type="qcurve" smooth="yes"/>
			<point x="1033" y="710"/>
			<point x="794" y="333"/>
			<point x="542" y="4" type="qcurve"/>
		</contour>
	</outline>
</glyph>
<glyph name="w" format="2">
  <advance width="1617"/>
  <unicode hex="0077"/>
  <outline>
    <contour>
      <point x="143" y="-8" type="line"/>
      <point x="116" y="525" type="line"/>
      <point x="96" y="804" type="line"/>
      <point x="-40" y="798" type="line"/>
      <point x="-37" y="930" type="line"/>
      <point x="350" y="1051" type="line"/>
      <point x="541" y="1051" type="line"/>
      <point x="554" y="585" type="line"/>
      <point x="566" y="325" type="line"/>
      <point x="565" y="249" type="line"/>
      <point x="575" y="249" type="line"/>
      <point x="627" y="325" type="line"/>
      <point x="657" y="365"/>
      <point x="679" y="396"/>
      <point x="699" y="425" type="qcurve"/>
      <point x="679" y="832" type="line"/>
      <point x="641" y="829" type="line"/>
      <point x="644" y="971" type="line"/>
      <point x="928" y="1051" type="line"/>
      <point x="1119" y="1051" type="line"/>
      <point x="1132" y="584" type="line"/>
      <point x="1143" y="325" type="line"/>
      <point x="1141" y="249" type="line"/>
      <point x="1151" y="249" type="line"/>
      <point x="1201" y="325" type="line"/>
      <point x="1284" y="447"/>
      <point x="1339" y="615"/>
      <point x="1339" y="671" type="qcurve" smooth="yes"/>
      <point x="1339" y="739"/>
      <point x="1236" y="846"/>
      <point x="1238" y="928" type="qcurve" smooth="yes"/>
      <point x="1239" y="988"/>
      <point x="1320" y="1079"/>
      <point x="1393" y="1078" type="qcurve" smooth="yes"/>
      <point x="1476" y="1077"/>
      <point x="1571" y="977"/>
      <point x="1571" y="860" type="qcurve" smooth="yes"/>
      <point x="1571" y="713"/>
      <point x="1362" y="333"/>
      <point x="1109" y="4" type="qcurve"/>
      <point x="723" y="-8" type="line"/>
      <point x="713" y="191" type="line"/>
      <point x="713" y="258" type="line"/>
      <point x="703" y="258" type="line"/>
      <point x="660" y="191" type="line"/>
      <point x="626" y="144"/>
      <point x="578" y="74"/>
      <point x="531" y="4" type="qcurve"/>
    </contour>
  </outline>
</glyph>
<glyph name="x" format="2">
	<unicode hex="0078"/>
	<advance width="1121"/>
	<outline>
		<contour>
			<point x="32" y="-9" type="qcurve"/>
			<point x="-122" y="45" type="line"/>
			<point x="-106" y="171" type="line"/>
			<point x="38" y="171" type="line" smooth="yes"/>
			<point x="90" y="171"/>
			<point x="197" y="213"/>
			<point x="242" y="248" type="qcurve" smooth="yes"/>
			<point x="260" y="262"/>
			<point x="283" y="285"/>
			<point x="299" y="302" type="qcurve"/>
			<point x="157" y="806" type="line"/>
			<point x="16" y="803" type="line"/>
			<point x="20" y="931" type="line"/>
			<point x="482" y="1068" type="line"/>
			<point x="607" y="1028" type="line"/>
			<point x="642" y="892" type="line"/>
			<point x="654" y="827" type="line"/>
			<point x="664" y="827" type="line"/>
			<point x="705" y="890" type="line"/>
			<point x="727" y="920"/>
			<point x="754" y="954"/>
			<point x="780" y="981" type="qcurve" smooth="yes"/>
			<point x="815" y="1017"/>
			<point x="913" y="1066"/>
			<point x="970" y="1066" type="qcurve" smooth="yes"/>
			<point x="1033" y="1066"/>
			<point x="1100" y="1009"/>
			<point x="1099" y="954" type="qcurve" smooth="yes"/>
			<point x="1097" y="892"/>
			<point x="1052" y="794"/>
			<point x="1040" y="774" type="qcurve"/>
			<point x="906" y="774" type="line"/>
			<point x="906" y="811" type="line" smooth="yes"/>
			<point x="906" y="828"/>
			<point x="892" y="846"/>
			<point x="874" y="846" type="qcurve" smooth="yes"/>
			<point x="852" y="846"/>
			<point x="797" y="816"/>
			<point x="775" y="795" type="qcurve" smooth="yes"/>
			<point x="758" y="778"/>
			<point x="731" y="745"/>
			<point x="693" y="695" type="qcurve"/>
			<point x="834" y="191" type="line"/>
			<point x="982" y="172" type="line"/>
			<point x="976" y="43" type="line"/>
			<point x="494" y="-8" type="line"/>
			<point x="372" y="31" type="line"/>
			<point x="346" y="127" type="line"/>
			<point x="337" y="180" type="line"/>
			<point x="327" y="180" type="line"/>
			<point x="284" y="127" type="line"/>
			<point x="258" y="102"/>
			<point x="234" y="80"/>
			<point x="216" y="66" type="qcurve" smooth="yes"/>
			<point x="161" y="24"/>
			<point x="68" y="-10"/>
		</contour>
	</outline>
</glyph>
<glyph name="brokenbar" format="2">
	<unicode hex="00A6"/>
	<advance width="703"/>
	<outline>
		<contour>
			<point x="172" y="654" type="line"/>
			<point x="221" y="910" type="line"/>
			<point x="267" y="1218" type="line"/>
			<point x="306" y="1484" type="line"/>
			<point x="712" y="1546" type="line"/>
			<point x="636" y="1218" type="line"/>
			<point x="560" y="910" type="line"/>
			<point x="522" y="708" type="line"/>
		</contour>
		<contour>
			<point x="-86" y="-536" type="line"/>
			<point x="13" y="-88" type="line"/>
			<point x="89" y="220" type="line"/>
			<point x="124" y="408" type="line"/>
			<point x="474" y="464" type="line"/>
			<point x="428" y="220" type="line"/>
			<point x="382" y="-88" type="line"/>
			<point x="319" y="-474" type="line"/>
		</contour>
	</outline>
</glyph>
<glyph name="copyright" format="2">
	<unicode hex="00A9"/>
	<advance width="1771"/>
	<outline>
		<contour>
			<point x="453" y="644" type="qcurve" smooth="yes"/>
			<point x="453" y="891"/>
			<point x="710" y="1176"/>
			<point x="935" y="1176" type="qcurve" smooth="yes"/>
			<point x="1011" y="1176"/>
			<point x="1104" y="1146"/>
			<point x="1130" y="1125" type="qcurve"/>
			<point x="1141" y="1168" type="line"/>
			<point x="1252" y="1144" type="line"/>
			<point x="1258" y="837" type="line"/>
			<point x="1138" y="817" type="line"/>
			<point x="1132" y="891" type="line"/>
			<point x="1128" y="956"/>
			<point x="1050" y="1031"/>
			<point x="990" y="1031" type="qcurve" smooth="yes"/>
			<point x="898" y="1031"/>
			<point x="795" y="858"/>
			<point x="795" y="662" type="qcurve" smooth="yes"/>
			<point x="795" y="480"/>
			<point x="916" y="314"/>
			<point x="1024" y="314" type="qcurve" smooth="yes"/>
			<point x="1079" y="314"/>
			<point x="1196" y="371"/>
			<point x="1229" y="422" type="qcurve"/>
			<point x="1283" y="333" type="line"/>
			<point x="1242" y="255"/>
			<point x="1061" y="138"/>
			<point x="910" y="138" type="qcurve" smooth="yes"/>
			<point x="717" y="138"/>
			<point x="453" y="403"/>
		</contour>
		<contour>
			<point x="82" y="685" type="qcurve" smooth="yes"/>
			<point x="82" y="1059"/>
			<point x="530" y="1567"/>
			<point x="877" y="1567" type="qcurve" smooth="yes"/>
			<point x="1223" y="1567"/>
			<point x="1669" y="1085"/>
			<point x="1669" y="706" type="qcurve" smooth="yes"/>
			<point x="1669" y="289"/>
			<point x="1229" y="-239"/>
			<point x="887" y="-239" type="qcurve" smooth="yes"/>
			<point x="536" y="-239"/>
			<point x="82" y="277"/>
		</contour>
		<contour>
			<point x="201" y="681" type="qcurve" smooth="yes"/>
			<point x="201" y="332"/>
			<point x="608" y="-127"/>
			<point x="902" y="-127" type="qcurve" smooth="yes"/>
			<point x="1188" y="-127"/>
			<point x="1550" y="357"/>
			<point x="1550" y="698" type="qcurve" smooth="yes"/>
			<point x="1550" y="1010"/>
			<point x="1166" y="1455"/>
			<point x="860" y="1455" type="qcurve" smooth="yes"/>
			<point x="567" y="1455"/>
			<point x="201" y="1001"/>
		</contour>
	</outline>
</glyph>
<glyph name="ordfeminine" format="2">
	<unicode hex="00AA"/>
	<advance width="1067"/>
	<outline>
		<contour>
			<point x="245" y="873" type="qcurve" smooth="yes"/>
			<point x="257" y="1122"/>
			<point x="515" y="1478"/>
			<point x="756" y="1478" type="qcurve" smooth="yes"/>
			<point x="788" y="1478"/>
			<point x="847" y="1462"/>
			<point x="859" y="1451" type="qcurve"/>
			<point x="975" y="1477" type="line"/>
			<point x="1072" y="1477" type="line"/>
			<point x="1097" y="1288" type="line"/>
			<point x="1031" y="980" type="line"/>
			<point x="1015" y="887" type="line"/>
			<point x="1062" y="694" type="line"/>
			<point x="768" y="670" type="line"/>
			<point x="714" y="782" type="line"/>
			<point x="464" y="670" type="line"/>
			<point x="357" y="670"/>
			<point x="241" y="783"/>
		</contour>
		<contour>
			<point x="554" y="925" type="qcurve" smooth="yes"/>
			<point x="550" y="875"/>
			<point x="570" y="836"/>
			<point x="596" y="836" type="qcurve" smooth="yes"/>
			<point x="621" y="836"/>
			<point x="716" y="955"/>
			<point x="750" y="1082" type="qcurve" smooth="yes"/>
			<point x="806" y="1305" type="line"/>
			<point x="807" y="1331"/>
			<point x="788" y="1361"/>
			<point x="761" y="1361" type="qcurve" smooth="yes"/>
			<point x="693" y="1361"/>
			<point x="564" y="1048"/>
		</contour>
	</outline>
</glyph>
<glyph name="logicalnot" format="2">
	<unicode hex="00AC"/>
	<advance width="889"/>
	<outline>
		<contour>
			<point x="30" y="809" type="line"/>
			<point x="760" y="809" type="line"/>
			<point x="760" y="319" type="line"/>
			<point x="484" y="319" type="line"/>
			<point x="484" y="555" type="line"/>
			<point x="30" y="555" type="line"/>
		</contour>
	</outline>
</glyph>
<glyph name="registered" format="2">
	<unicode hex="00AE"/>
	<advance width="1771"/>
	<outline>
		<contour>
			<point x="81" y="685" type="qcurve" smooth="yes"/>
			<point x="81" y="1061"/>
			<point x="529" y="1570"/>
			<point x="875" y="1570" type="qcurve" smooth="yes"/>
			<point x="1221" y="1570"/>
			<point x="1667" y="1087"/>
			<point x="1667" y="706" type="qcurve" smooth="yes"/>
			<point x="1667" y="288"/>
			<point x="1227" y="-242"/>
			<point x="886" y="-242" type="qcurve" smooth="yes"/>
			<point x="535" y="-242"/>
			<point x="81" y="276"/>
		</contour>
		<contour>
			<point x="197" y="681" type="qcurve" smooth="yes"/>
			<point x="197" y="332"/>
			<point x="605" y="-128"/>
			<point x="899" y="-128" type="qcurve" smooth="yes"/>
			<point x="1185" y="-128"/>
			<point x="1548" y="356"/>
			<point x="1548" y="698" type="qcurve" smooth="yes"/>
			<point x="1548" y="1011"/>
			<point x="1164" y="1456"/>
			<point x="857" y="1456" type="qcurve" smooth="yes"/>
			<point x="563" y="1456"/>
			<point x="197" y="1002"/>
		</contour>
		<contour>
			<point x="491" y="176" type="line"/>
			<point x="492" y="266" type="line"/>
			<point x="572" y="290" type="line"/>
			<point x="581" y="723" type="line"/>
			<point x="572" y="1068" type="line"/>
			<point x="484" y="1091" type="line"/>
			<point x="484" y="1209" type="line"/>
			<point x="906" y="1209" type="line" smooth="yes"/>
			<point x="1040" y="1209"/>
			<point x="1200" y="1062"/>
			<point x="1200" y="928" type="qcurve" smooth="yes"/>
			<point x="1200" y="777"/>
			<point x="1011" y="614"/>
			<point x="904" y="614" type="qcurve" smooth="yes"/>
			<point x="861" y="614"/>
			<point x="782" y="623"/>
			<point x="762" y="623" type="qcurve"/>
			<point x="762" y="738" type="line"/>
			<point x="815" y="738" type="line" smooth="yes"/>
			<point x="916" y="738"/>
			<point x="988" y="828"/>
			<point x="988" y="919" type="qcurve" smooth="yes"/>
			<point x="988" y="1009"/>
			<point x="919" y="1078"/>
			<point x="832" y="1078" type="qcurve" smooth="yes"/>
			<point x="811" y="1078" type="line"/>
			<point x="793" y="1065" type="line"/>
			<point x="782" y="703" type="line"/>
			<point x="791" y="290" type="line"/>
			<point x="863" y="266" type="line"/>
			<point x="863" y="176" type="line"/>
		</contour>
		<contour>
			<point x="812" y="690" type="line"/>
			<point x="1020" y="718" type="line"/>
			<point x="1173" y="393" type="line" smooth="yes"/>
			<point x="1223" y="290"/>
			<point x="1264" y="266"/>
			<point x="1299" y="266" type="qcurve"/>
			<point x="1299" y="176" type="line"/>
			<point x="1077" y="176" type="line"/>
			<point x="1041" y="190" type="line"/>
		</contour>
	</outline>
</glyph>
<glyph name="macron" format="2">
	<unicode hex="00AF"/>
	<advance width="1024"/>
	<outline>
		<contour>
			<point x="307" y="1202" type="line"/>
			<point x="343" y="1388" type="line"/>
			<point x="948" y="1388" type="line"/>
			<point x="912" y="1202" type="line"/>
		</contour>
	</outline>
</glyph>
<glyph name="degree" format="2">
	<unicode hex="00B0"/>
	<advance width="733"/>
	<outline>
		<contour>
			<point x="184" y="1243" type="qcurve" smooth="yes"/>
			<point x="184" y="1371"/>
			<point x="335" y="1560"/>
			<point x="453" y="1560" type="qcurve" smooth="yes"/>
			<point x="572" y="1560"/>
			<point x="723" y="1371"/>
			<point x="723" y="1243" type="qcurve" smooth="yes"/>
			<point x="723" y="1118"/>
			<point x="572" y="928"/>
			<point x="453" y="928" type="qcurve" smooth="yes"/>
			<point x="335" y="928"/>
			<point x="184" y="1118"/>
		</contour>
		<contour>
			<point x="340" y="1243" type="qcurve" smooth="yes"/>
			<point x="340" y="1182"/>
			<point x="397" y="1086"/>
			<point x="453" y="1086" type="qcurve" smooth="yes"/>
			<point x="510" y="1086"/>
			<point x="567" y="1182"/>
			<point x="567" y="1243" type="qcurve" smooth="yes"/>
			<point x="567" y="1308"/>
			<point x="510" y="1402"/>
			<point x="453" y="1402" type="qcurve" smooth="yes"/>
			<point x="397" y="1402"/>
			<point x="340" y="1308"/>
		</contour>
	</outline>
</glyph>
<glyph name="plusminus" format="2">
	<unicode hex="00B1"/>
	<advance width="889"/>
	<outline>
		<contour>
			<point x="-36" y="625" type="line"/>
			<point x="-36" y="879" type="line"/>
			<point x="724" y="879" type="line"/>
			<point x="724" y="625" type="line"/>
		</contour>
		<contour>
			<point x="214" y="354" type="line"/>
			<point x="214" y="1112" type="line"/>
			<point x="474" y="1112" type="line"/>
			<point x="474" y="354" type="line"/>
		</contour>
		<contour>
			<point x="-36" y="20" type="line"/>
			<point x="-36" y="251" type="line"/>
			<point x="724" y="251" type="line"/>
			<point x="724" y="20" type="line"/>
		</contour>
	</outline>
</glyph>
<glyph name="twosuperior" format="2">
	<unicode hex="00B2"/>
	<advance width="748"/>
	<outline>
		<contour>
			<point x="120" y="687" type="qcurve"/>
			<point x="77" y="759" type="line"/>
			<point x="143" y="815" type="line"/>
			<point x="217" y="891"/>
			<point x="488" y="1160"/>
			<point x="488" y="1262" type="qcurve" smooth="yes"/>
			<point x="488" y="1316"/>
			<point x="451" y="1381"/>
			<point x="396" y="1381" type="qcurve" smooth="yes"/>
			<point x="355" y="1381"/>
			<point x="284" y="1343"/>
			<point x="253" y="1308" type="qcurve"/>
			<point x="205" y="1390" type="line"/>
			<point x="245" y="1454"/>
			<point x="375" y="1525"/>
			<point x="478" y="1525" type="qcurve" smooth="yes"/>
			<point x="611" y="1525"/>
			<point x="747" y="1404"/>
			<point x="747" y="1320" type="qcurve" smooth="yes"/>
			<point x="747" y="1169"/>
			<point x="513" y="962"/>
			<point x="392" y="889" type="qcurve"/>
			<point x="392" y="888" type="line"/>
			<point x="461" y="887"/>
			<point x="650" y="868"/>
			<point x="710" y="847" type="qcurve"/>
			<point x="636" y="667" type="line"/>
			<point x="458" y="719"/>
			<point x="214" y="723"/>
		</contour>
	</outline>
</glyph>
<glyph name="threesuperior" format="2">
	<unicode hex="00B3"/>
	<advance width="706"/>
	<outline>
		<contour>
			<point x="92" y="730" type="qcurve" smooth="yes"/>
			<point x="92" y="776"/>
			<point x="145" y="847"/>
			<point x="186" y="862" type="qcurve"/>
			<point x="245" y="808" type="line"/>
			<point x="245" y="794" type="line"/>
			<point x="234" y="788"/>
			<point x="223" y="768"/>
			<point x="223" y="749" type="qcurve" smooth="yes"/>
			<point x="223" y="722"/>
			<point x="264" y="687"/>
			<point x="321" y="687" type="qcurve" smooth="yes"/>
			<point x="391" y="687"/>
			<point x="497" y="810"/>
			<point x="502" y="905" type="qcurve" smooth="yes"/>
			<point x="507" y="1009"/>
			<point x="417" y="1082"/>
			<point x="332" y="1079" type="qcurve" smooth="yes"/>
			<point x="279" y="1077" type="line"/>
			<point x="294" y="1178" type="line"/>
			<point x="347" y="1180" type="line" smooth="yes"/>
			<point x="428" y="1183"/>
			<point x="517" y="1243"/>
			<point x="517" y="1314" type="qcurve" smooth="yes"/>
			<point x="517" y="1361"/>
			<point x="481" y="1402"/>
			<point x="445" y="1402" type="qcurve" smooth="yes"/>
			<point x="413" y="1402"/>
			<point x="338" y="1359"/>
			<point x="310" y="1332" type="qcurve"/>
			<point x="256" y="1409" type="line"/>
			<point x="300" y="1462"/>
			<point x="422" y="1526"/>
			<point x="532" y="1526" type="qcurve" smooth="yes"/>
			<point x="663" y="1526"/>
			<point x="767" y="1431"/>
			<point x="762" y="1356" type="qcurve" smooth="yes"/>
			<point x="756" y="1261"/>
			<point x="645" y="1155"/>
			<point x="553" y="1137" type="qcurve"/>
			<point x="552" y="1133" type="line"/>
			<point x="642" y="1120"/>
			<point x="754" y="1016"/>
			<point x="744" y="904" type="qcurve" smooth="yes"/>
			<point x="731" y="759"/>
			<point x="514" y="583"/>
			<point x="317" y="583" type="qcurve" smooth="yes"/>
			<point x="199" y="583"/>
			<point x="92" y="666"/>
		</contour>
	</outline>
</glyph>
<glyph name="acute" format="2">
	<unicode hex="00B4"/>
	<advance width="1024"/>
	<outline>
		<contour>
			<point x="403" y="1221" type="line"/>
			<point x="556" y="1452" type="line" smooth="yes"/>
			<point x="595" y="1507"/>
			<point x="682" y="1595"/>
			<point x="728" y="1599" type="qcurve" smooth="yes"/>
			<point x="775" y="1602"/>
			<point x="860" y="1535"/>
			<point x="863" y="1489" type="qcurve" smooth="yes"/>
			<point x="866" y="1449"/>
			<point x="828" y="1366"/>
			<point x="781" y="1334" type="qcurve" smooth="yes"/>
			<point x="497" y="1136" type="line"/>
		</contour>
	</outline>
</glyph>
<glyph name="micro" format="2">
	<unicode hex="00B5"/>
	<advance width="1291"/>
	<outline>
		<contour>
			<point x="-146" y="-301" type="line"/>
			<point x="-93" y="-265" type="line"/>
			<point x="-65" y="-146"/>
			<point x="-19" y="96"/>
			<point x="-1" y="181" type="qcurve" smooth="yes"/>
			<point x="130" y="803" type="line"/>
			<point x="2" y="799" type="line"/>
			<point x="10" y="939" type="line"/>
			<point x="358" y="1050" type="line"/>
			<point x="548" y="1050" type="line"/>
			<point x="620" y="925" type="line"/>
			<point x="515" y="402" type="line" smooth="yes"/>
			<point x="492" y="286"/>
			<point x="512" y="226"/>
			<point x="537" y="226" type="qcurve" smooth="yes"/>
			<point x="559" y="226"/>
			<point x="583" y="236"/>
			<point x="598" y="256" type="qcurve"/>
			<point x="731" y="920" type="line"/>
			<point x="695" y="1033" type="line"/>
			<point x="1172" y="1061" type="line"/>
			<point x="1212" y="952" type="line"/>
			<point x="1098" y="415" type="line"/>
			<point x="1052" y="183" type="line"/>
			<point x="1204" y="173" type="line"/>
			<point x="1194" y="46" type="line"/>
			<point x="685" y="-15" type="line"/>
			<point x="652" y="95" type="line"/>
			<point x="633" y="99" type="line"/>
			<point x="612" y="46"/>
			<point x="544" y="-7"/>
			<point x="501" y="-7" type="qcurve" smooth="yes"/>
			<point x="468" y="-7"/>
			<point x="443" y="-2"/>
			<point x="420" y="8" type="qcurve"/>
			<point x="369" y="-234" type="line"/>
			<point x="455" y="-252" type="line"/>
			<point x="442" y="-371" type="line"/>
			<point x="-121" y="-403" type="line"/>
		</contour>
	</outline>
</glyph>
<glyph name="paragraph" format="2">
	<unicode hex="00B6"/>
	<advance width="1162"/>
	<outline>
		<contour>
			<point x="723" y="162" type="qcurve" smooth="yes"/>
			<point x="831" y="737" type="line"/>
			<point x="795" y="731"/>
			<point x="594" y="723"/>
			<point x="541" y="723" type="qcurve" smooth="yes"/>
			<point x="367" y="723"/>
			<point x="158" y="954"/>
			<point x="187" y="1155" type="qcurve" smooth="yes"/>
			<point x="213" y="1326"/>
			<point x="450" y="1500"/>
			<point x="622" y="1500" type="qcurve" smooth="yes"/>
			<point x="1242" y="1500" type="line"/>
			<point x="1219" y="1357" type="line"/>
			<point x="1134" y="1334" type="line"/>
			<point x="1027" y="754" type="line"/>
			<point x="923" y="264" type="line"/>
			<point x="964" y="150"/>
			<point x="892" y="6"/>
			<point x="792" y="6" type="qcurve" smooth="yes"/>
			<point x="739" y="6"/>
			<point x="712" y="99"/>
		</contour>
		<contour>
			<point x="364" y="220" type="qcurve" smooth="yes"/>
			<point x="477" y="792" type="line"/>
			<point x="670" y="799" type="line"/>
			<point x="566" y="263" type="line" smooth="yes"/>
			<point x="504" y="-58"/>
			<point x="281" y="-283"/>
			<point x="142" y="-283" type="qcurve" smooth="yes"/>
			<point x="43" y="-283"/>
			<point x="-57" y="-193"/>
			<point x="-55" y="-117" type="qcurve" smooth="yes"/>
			<point x="-53" y="-57"/>
			<point x="17" y="31"/>
			<point x="66" y="47" type="qcurve"/>
			<point x="119" y="-3" type="line"/>
			<point x="119" y="-63" type="line"/>
			<point x="108" y="-63"/>
			<point x="83" y="-89"/>
			<point x="82" y="-111" type="qcurve" smooth="yes"/>
			<point x="82" y="-133"/>
			<point x="110" y="-162"/>
			<point x="143" y="-162" type="qcurve" smooth="yes"/>
			<point x="232" y="-162"/>
			<point x="322" y="17"/>
		</contour>
	</outline>
</glyph>
<glyph name="periodcentered" format="2">
	<unicode hex="00B7"/>
	<advance width="547"/>
	<outline>
		<contour>
			<point x="101" y="654" type="qcurve" smooth="yes"/>
			<point x="101" y="743"/>
			<point x="231" y="874"/>
			<point x="333" y="874" type="qcurve" smooth="yes"/>
			<point x="434" y="874"/>
			<point x="565" y="743"/>
			<point x="565" y="654" type="qcurve" smooth="yes"/>
			<point x="565" y="567"/>
			<point x="434" y="435"/>
			<point x="333" y="435" type="qcurve" smooth="yes"/>
			<point x="231" y="435"/>
			<point x="101" y="567"/>
		</contour>
	</outline>
</glyph>
<glyph name="cedilla" format="2">
	<unicode hex="00B8"/>
	<advance width="1024"/>
	<outline>
		<contour>
			<point x="457" y="1" type="line"/>
			<point x="375" y="-105" type="line"/>
			<point x="394" y="-99"/>
			<point x="467" y="-93"/>
			<point x="502" y="-93" type="qcurve" smooth="yes"/>
			<point x="592" y="-93"/>
			<point x="706" y="-176"/>
			<point x="698" y="-259" type="qcurve" smooth="yes"/>
			<point x="689" y="-350"/>
			<point x="510" y="-466"/>
			<point x="370" y="-466" type="qcurve" smooth="yes"/>
			<point x="268" y="-466"/>
			<point x="126" y="-424"/>
			<point x="71" y="-383" type="qcurve"/>
			<point x="134" y="-296" type="line"/>
			<point x="175" y="-322"/>
			<point x="275" y="-350"/>
			<point x="348" y="-350" type="qcurve" smooth="yes"/>
			<point x="406" y="-350"/>
			<point x="476" y="-306"/>
			<point x="482" y="-263" type="qcurve" smooth="yes"/>
			<point x="485" y="-232"/>
			<point x="435" y="-192"/>
			<point x="390" y="-192" type="qcurve" smooth="yes"/>
			<point x="355" y="-192"/>
			<point x="302" y="-198"/>
			<point x="285" y="-205" type="qcurve"/>
			<point x="225" y="-137" type="line"/>
			<point x="364" y="51" type="line"/>
		</contour>
	</outline>
</glyph>
<glyph name="onesuperior" format="2">
	<unicode hex="00B9"/>
	<advance width="604"/>
	<outline>
		<contour>
			<point x="193" y="724" type="line"/>
			<point x="205" y="758"/>
			<point x="225" y="817"/>
			<point x="235" y="876" type="qcurve" smooth="yes"/>
			<point x="295" y="1235" type="line"/>
			<point x="309" y="1341" type="line"/>
			<point x="137" y="1269" type="line"/>
			<point x="102" y="1377" type="line"/>
			<point x="510" y="1554" type="line"/>
			<point x="629" y="1496" type="line"/>
			<point x="612" y="1472"/>
			<point x="591" y="1396"/>
			<point x="588" y="1383" type="qcurve" smooth="yes"/>
			<point x="536" y="1095" type="line"/>
			<point x="492" y="782" type="line"/>
			<point x="282" y="681" type="line"/>
		</contour>
	</outline>
</glyph>
<glyph name="ordmasculine" format="2">
	<unicode hex="00BA"/>
	<advance width="904"/>
	<outline>
		<contour>
			<point x="235" y="1143" type="qcurve" smooth="yes"/>
			<point x="280" y="1324"/>
			<point x="537" y="1509"/>
			<point x="709" y="1502" type="qcurve" smooth="yes"/>
			<point x="880" y="1496"/>
			<point x="1010" y="1236"/>
			<point x="971" y="1058" type="qcurve" smooth="yes"/>
			<point x="930" y="871"/>
			<point x="677" y="684"/>
			<point x="494" y="694" type="qcurve" smooth="yes"/>
			<point x="310" y="704"/>
			<point x="187" y="964"/>
		</contour>
		<contour>
			<point x="571" y="1121" type="qcurve" smooth="yes"/>
			<point x="541" y="987"/>
			<point x="504" y="802"/>
			<point x="534" y="793" type="qcurve" smooth="yes"/>
			<point x="566" y="784"/>
			<point x="609" y="932"/>
			<point x="639" y="1080" type="qcurve" smooth="yes"/>
			<point x="666" y="1214"/>
			<point x="696" y="1387"/>
			<point x="666" y="1393" type="qcurve" smooth="yes"/>
			<point x="637" y="1398"/>
			<point x="598" y="1254"/>
		</contour>
	</outline>
</glyph>
<glyph name="multiply" format="2">
	<unicode hex="00D7"/>
	<advance width="889"/>
	<outline>
		<contour>
			<point x="159" y="237" type="line"/>
			<point x="-12" y="411" type="line"/>
			<point x="661" y="1084" type="line"/>
			<point x="832" y="909" type="line"/>
		</contour>
		<contour>
			<point x="666" y="242" type="line"/>
			<point x="-7" y="914" type="line"/>
			<point x="154" y="1079" type="line"/>
			<point x="827" y="406" type="line"/>
		</contour>
	</outline>
</glyph>
<glyph name="Thorn" format="2">
	<unicode hex="00DE"/>
	<advance width="1415"/>
	<outline>
		<contour>
			<point x="695" y="1220" type="line"/>
			<point x="815" y="1220" type="line" smooth="yes"/>
			<point x="1052" y="1220"/>
			<point x="1342" y="989"/>
			<point x="1317" y="757" type="qcurve" smooth="yes"/>
			<point x="1292" y="529"/>
			<point x="999" y="274"/>
			<point x="710" y="274" type="qcurve" smooth="yes"/>
			<point x="645" y="274"/>
			<point x="492" y="291"/>
			<point x="451" y="303" type="qcurve"/>
			<point x="480" y="449" type="line"/>
			<point x="529" y="435"/>
			<point x="581" y="427"/>
			<point x="586" y="427" type="qcurve" smooth="yes"/>
			<point x="722" y="427"/>
			<point x="822" y="590"/>
			<point x="849" y="734" type="qcurve" smooth="yes"/>
			<point x="881" y="910"/>
			<point x="820" y="1062"/>
			<point x="714" y="1062" type="qcurve" smooth="yes"/>
			<point x="688" y="1062" type="line"/>
			<point x="662" y="1040" type="line"/>
			<point x="551" y="427" type="line"/>
			<point x="496" y="144" type="line"/>
			<point x="631" y="126" type="line"/>
			<point x="612" y="0" type="line"/>
			<point x="-112" y="0" type="line"/>
			<point x="-94" y="126" type="line"/>
			<point x="-14" y="139" type="line"/>
			<point x="128" y="848" type="line"/>
			<point x="217" y="1339" type="line"/>
			<point x="122" y="1361" type="line"/>
			<point x="137" y="1500" type="line"/>
			<point x="837" y="1500" type="line"/>
			<point x="811" y="1357" type="line"/>
			<point x="707" y="1334" type="line"/>
		</contour>
	</outline>
</glyph>
<glyph name="divide" format="2">
	<unicode hex="00F7"/>
	<advance width="889"/>
	<outline>
		<contour>
			<point x="34" y="505" type="line"/>
			<point x="34" y="759" type="line"/>
			<point x="794" y="759" type="line"/>
			<point x="794" y="505" type="line"/>
		</contour>
		<contour>
			<point x="260" y="301" type="qcurve" smooth="yes"/>
			<point x="260" y="363"/>
			<point x="348" y="457"/>
			<point x="416" y="457" type="qcurve" smooth="yes"/>
			<point x="484" y="457"/>
			<point x="572" y="363"/>
			<point x="572" y="301" type="qcurve" smooth="yes"/>
			<point x="572" y="240"/>
			<point x="484" y="145"/>
			<point x="416" y="145" type="qcurve" smooth="yes"/>
			<point x="348" y="145"/>
			<point x="260" y="240"/>
		</contour>
		<contour>
			<point x="260" y="965" type="qcurve" smooth="yes"/>
			<point x="260" y="1026"/>
			<point x="348" y="1121"/>
			<point x="416" y="1121" type="qcurve" smooth="yes"/>
			<point x="484" y="1121"/>
			<point x="572" y="1026"/>
			<point x="572" y="965" type="qcurve" smooth="yes"/>
			<point x="572" y="903"/>
			<point x="484" y="809"/>
			<point x="416" y="809" type="qcurve" smooth="yes"/>
			<point x="348" y="809"/>
			<point x="260" y="903"/>
		</contour>
	</outline>
</glyph>
<glyph name="florin" format="2">
	<unicode hex="0192"/>
	<advance width="916"/>
	<outline>
		<contour>
			<point x="513" y="32" type="line" smooth="yes"/>
			<point x="484" y="-124"/>
			<point x="277" y="-310"/>
			<point x="79" y="-310" type="qcurve" smooth="yes"/>
			<point x="-23" y="-310"/>
			<point x="-152" y="-285"/>
			<point x="-193" y="-267" type="qcurve" smooth="yes"/>
			<point x="-215" y="-257" type="line"/>
			<point x="-184" y="-101" type="line"/>
			<point x="-173" y="-106" type="line" smooth="yes"/>
			<point x="-160" y="-112"/>
			<point x="-101" y="-123"/>
			<point x="-77" y="-123" type="qcurve" smooth="yes"/>
			<point x="-23" y="-123"/>
			<point x="49" y="-60"/>
			<point x="60" y="-2" type="qcurve" smooth="yes"/>
			<point x="219" y="854" type="line"/>
			<point x="55" y="875" type="line"/>
			<point x="41" y="1008" type="line"/>
			<point x="255" y="1034" type="line"/>
			<point x="280" y="1190" type="line" smooth="yes"/>
			<point x="304" y="1346"/>
			<point x="496" y="1532"/>
			<point x="694" y="1532" type="qcurve" smooth="yes"/>
			<point x="796" y="1532"/>
			<point x="943" y="1502"/>
			<point x="986" y="1489" type="qcurve" smooth="yes"/>
			<point x="1008" y="1479" type="line"/>
			<point x="977" y="1323" type="line"/>
			<point x="966" y="1328" type="line" smooth="yes"/>
			<point x="953" y="1334"/>
			<point x="894" y="1345"/>
			<point x="870" y="1345" type="qcurve" smooth="yes"/>
			<point x="816" y="1345"/>
			<point x="746" y="1282"/>
			<point x="738" y="1224" type="qcurve" smooth="yes"/>
			<point x="702" y="1024" type="line"/>
			<point x="844" y="1024" type="line"/>
			<point x="844" y="872" type="line"/>
			<point x="670" y="865" type="line"/>
		</contour>
	</outline>
</glyph>
<glyph name="circumflex" format="2">
	<unicode hex="02C6"/>
	<advance width="1024"/>
	<outline>
		<contour>
			<point x="696" y="1584" type="qcurve" smooth="yes"/>
			<point x="735" y="1584"/>
			<point x="792" y="1544"/>
			<point x="824" y="1489" type="qcurve" smooth="yes"/>
			<point x="993" y="1227" type="line"/>
			<point x="880" y="1136" type="line"/>
			<point x="651" y="1353" type="line"/>
			<point x="339" y="1136" type="line"/>
			<point x="260" y="1226" type="line"/>
			<point x="531" y="1489" type="line" smooth="yes"/>
			<point x="589" y="1546"/>
			<point x="656" y="1584"/>
		</contour>
	</outline>
</glyph>
<glyph name="caron" format="2">
	<unicode hex="02C7"/>
	<advance width="1024"/>
	<outline>
		<contour>
			<point x="596" y="1145" type="qcurve" smooth="yes"/>
			<point x="557" y="1145"/>
			<point x="501" y="1185"/>
			<point x="468" y="1239" type="qcurve" smooth="yes"/>
			<point x="306" y="1508" type="line"/>
			<point x="413" y="1593" type="line"/>
			<point x="641" y="1375" type="line"/>
			<point x="953" y="1593" type="line"/>
			<point x="1026" y="1508" type="line"/>
			<point x="761" y="1239" type="line" smooth="yes"/>
			<point x="704" y="1182"/>
			<point x="636" y="1145"/>
		</contour>
	</outline>
</glyph>
<glyph name="breve" format="2">
	<unicode hex="02D8"/>
	<advance width="1024"/>
	<outline>
		<contour>
			<point x="912" y="1483" type="qcurve"/>
			<point x="1008" y="1439" type="line"/>
			<point x="961" y="1290"/>
			<point x="754" y="1115"/>
			<point x="601" y="1115" type="qcurve" smooth="yes"/>
			<point x="449" y="1115"/>
			<point x="302" y="1302"/>
			<point x="313" y="1439" type="qcurve"/>
			<point x="410" y="1484" type="line"/>
			<point x="430" y="1409"/>
			<point x="539" y="1304"/>
			<point x="639" y="1304" type="qcurve" smooth="yes"/>
			<point x="732" y="1304"/>
			<point x="872" y="1407"/>
		</contour>
	</outline>
</glyph>
<glyph name="dotaccent" format="2">
	<unicode hex="02D9"/>
	<advance width="1024"/>
	<outline>
		<contour>
			<point x="489" y="1335" type="qcurve" smooth="yes"/>
			<point x="489" y="1409"/>
			<point x="568" y="1484"/>
			<point x="641" y="1484" type="qcurve" smooth="yes"/>
			<point x="711" y="1484"/>
			<point x="793" y="1402"/>
			<point x="793" y="1335" type="qcurve" smooth="yes"/>
			<point x="793" y="1264"/>
			<point x="717" y="1186"/>
			<point x="641" y="1186" type="qcurve" smooth="yes"/>
			<point x="572" y="1186"/>
			<point x="489" y="1268"/>
		</contour>
	</outline>
</glyph>
<glyph name="ring" format="2">
	<unicode hex="02DA"/>
	<advance width="1024"/>
	<outline>
		<contour>
			<point x="383" y="1377" type="qcurve" smooth="yes"/>
			<point x="383" y="1477"/>
			<point x="533" y="1630"/>
			<point x="652" y="1630" type="qcurve" smooth="yes"/>
			<point x="771" y="1630"/>
			<point x="921" y="1477"/>
			<point x="921" y="1377" type="qcurve" smooth="yes"/>
			<point x="921" y="1277"/>
			<point x="769" y="1124"/>
			<point x="652" y="1124" type="qcurve" smooth="yes"/>
			<point x="535" y="1124"/>
			<point x="383" y="1277"/>
		</contour>
		<contour>
			<point x="532" y="1377" type="qcurve" smooth="yes"/>
			<point x="532" y="1326"/>
			<point x="599" y="1260"/>
			<point x="652" y="1260" type="qcurve" smooth="yes"/>
			<point x="705" y="1260"/>
			<point x="772" y="1324"/>
			<point x="772" y="1377" type="qcurve" smooth="yes"/>
			<point x="772" y="1428"/>
			<point x="705" y="1495"/>
			<point x="652" y="1495" type="qcurve" smooth="yes"/>
			<point x="598" y="1495"/>
			<point x="532" y="1430"/>
		</contour>
	</outline>
</glyph>
<glyph name="ogonek" format="2">
	<unicode hex="02DB"/>
	<advance width="1024"/>
	<outline>
		<contour>
			<point x="357" y="-223" type="qcurve" smooth="yes"/>
			<point x="351" y="-269"/>
			<point x="415" y="-320"/>
			<point x="465" y="-320" type="qcurve" smooth="yes"/>
			<point x="521" y="-320"/>
			<point x="610" y="-290"/>
			<point x="664" y="-253" type="qcurve"/>
			<point x="707" y="-331" type="line"/>
			<point x="667" y="-370"/>
			<point x="489" y="-451"/>
			<point x="382" y="-451" type="qcurve" smooth="yes"/>
			<point x="265" y="-451"/>
			<point x="141" y="-362"/>
			<point x="153" y="-280" type="qcurve" smooth="yes"/>
			<point x="166" y="-185"/>
			<point x="310" y="-44"/>
			<point x="404" y="18" type="qcurve" smooth="yes"/>
			<point x="428" y="34" type="line"/>
			<point x="507" y="-15" type="line"/>
			<point x="492" y="-29" type="line" smooth="yes"/>
			<point x="418" y="-96"/>
			<point x="362" y="-180"/>
		</contour>
	</outline>
</glyph>
<glyph name="tilde" format="2">
	<unicode hex="02DC"/>
	<advance width="1024"/>
	<outline>
		<contour>
			<point x="268" y="1275" type="line"/>
			<point x="313" y="1346"/>
			<point x="451" y="1461"/>
			<point x="528" y="1461" type="qcurve" smooth="yes"/>
			<point x="566" y="1461"/>
			<point x="627" y="1439"/>
			<point x="662" y="1415" type="qcurve" smooth="yes"/>
			<point x="689" y="1396"/>
			<point x="758" y="1354"/>
			<point x="797" y="1354" type="qcurve" smooth="yes"/>
			<point x="835" y="1354"/>
			<point x="916" y="1400"/>
			<point x="943" y="1435" type="qcurve"/>
			<point x="984" y="1339" type="line"/>
			<point x="932" y="1257"/>
			<point x="807" y="1163"/>
			<point x="744" y="1163" type="qcurve" smooth="yes"/>
			<point x="700" y="1163"/>
			<point x="618" y="1204"/>
			<point x="594" y="1220" type="qcurve" smooth="yes"/>
			<point x="561" y="1241"/>
			<point x="503" y="1270"/>
			<point x="475" y="1270" type="qcurve" smooth="yes"/>
			<point x="430" y="1270"/>
			<point x="336" y="1206"/>
			<point x="314" y="1180" type="qcurve"/>
		</contour>
	</outline>
</glyph>
<glyph name="hungarumlaut" format="2">
	<unicode hex="02DD"/>
	<advance width="1024"/>
	<outline>
		<contour>
			<point x="231" y="1223" type="line"/>
			<point x="402" y="1439" type="line" smooth="yes"/>
			<point x="440" y="1487"/>
			<point x="527" y="1559"/>
			<point x="568" y="1559" type="qcurve" smooth="yes"/>
			<point x="611" y="1559"/>
			<point x="680" y="1495"/>
			<point x="680" y="1460" type="qcurve" smooth="yes"/>
			<point x="680" y="1424"/>
			<point x="635" y="1358"/>
			<point x="590" y="1330" type="qcurve" smooth="yes"/>
			<point x="310" y="1141" type="line"/>
		</contour>
		<contour>
			<point x="633" y="1223" type="line"/>
			<point x="802" y="1439" type="line" smooth="yes"/>
			<point x="841" y="1488"/>
			<point x="927" y="1559"/>
			<point x="968" y="1559" type="qcurve" smooth="yes"/>
			<point x="1013" y="1559"/>
			<point x="1080" y="1495"/>
			<point x="1080" y="1460" type="qcurve" smooth="yes"/>
			<point x="1080" y="1424"/>
			<point x="1034" y="1360"/>
			<point x="990" y="1330" type="qcurve" smooth="yes"/>
			<point x="711" y="1141" type="line"/>
		</contour>
	</outline>
</glyph>
<glyph name="tonos" format="2">
	<unicode hex="0384"/>
	<advance width="1039"/>
	<outline>
		<contour>
			<point x="489" y="1134" type="line"/>
			<point x="397" y="1189" type="line"/>
			<point x="629" y="1632" type="line"/>
			<point x="870" y="1562" type="line"/>
			<point x="883" y="1485" type="line"/>
		</contour>
	</outline>
	<guideline x="555" y="1136" angle="0" identifier="OtAJB1gllw"/>
</glyph>
<glyph name="horizontalbar" format="2">
	<unicode hex="2015"/>
	<advance width="836"/>
	<outline>
		<contour>
			<point x="389" y="656" type="line"/>
			<point x="33" y="656" type="line"/>
			<point x="73" y="812" type="line"/>
			<point x="421" y="812" type="line"/>
			<point x="809" y="812" type="line"/>
			<point x="773" y="656" type="line"/>
		</contour>
	</outline>
</glyph>
<glyph name="quoteleft" format="2">
	<unicode hex="2018"/>
	<advance width="600"/>
	<outline>
		<contour>
			<point x="595" y="1462" type="line"/>
			<point x="522" y="1416"/>
			<point x="417" y="1309"/>
			<point x="393" y="1253" type="qcurve"/>
			<point x="495" y="1253"/>
			<point x="600" y="1145"/>
			<point x="600" y="1062" type="qcurve" smooth="yes"/>
			<point x="600" y="980"/>
			<point x="473" y="859"/>
			<point x="384" y="859" type="qcurve" smooth="yes"/>
			<point x="295" y="859"/>
			<point x="181" y="967"/>
			<point x="181" y="1086" type="qcurve" smooth="yes"/>
			<point x="181" y="1220"/>
			<point x="352" y="1456"/>
			<point x="523" y="1549" type="qcurve"/>
		</contour>
	</outline>
</glyph>
<glyph name="quotesinglbase" format="2">
	<unicode hex="201A"/>
	<advance width="600"/>
	<outline>
		<contour>
			<point x="-14" y="-196" type="line"/>
			<point x="59" y="-150"/>
			<point x="164" y="-43"/>
			<point x="188" y="13" type="qcurve"/>
			<point x="86" y="13"/>
			<point x="-19" y="121"/>
			<point x="-19" y="204" type="qcurve" smooth="yes"/>
			<point x="-19" y="286"/>
			<point x="108" y="407"/>
			<point x="197" y="407" type="qcurve" smooth="yes"/>
			<point x="286" y="407"/>
			<point x="400" y="299"/>
			<point x="400" y="180" type="qcurve" smooth="yes"/>
			<point x="400" y="46"/>
			<point x="229" y="-190"/>
			<point x="58" y="-283" type="qcurve"/>
		</contour>
	</outline>
</glyph>
<glyph name="dagger" format="2">
	<unicode hex="2020"/>
	<advance width="900"/>
	<outline>
		<contour>
			<point x="158" y="-540" type="line"/>
			<point x="154" y="-58" type="line"/>
			<point x="316" y="550" type="line"/>
			<point x="368" y="830" type="line"/>
			<point x="435" y="1438" type="line"/>
			<point x="518" y="1506" type="line"/>
			<point x="658" y="1506" type="line"/>
			<point x="711" y="1438" type="line"/>
			<point x="548" y="830" type="line"/>
			<point x="496" y="550" type="line"/>
			<point x="420" y="-58" type="line"/>
			<point x="238" y="-540" type="line"/>
		</contour>
		<contour>
			<point x="113" y="847" type="line"/>
			<point x="114" y="1000" type="line"/>
			<point x="507" y="992" type="line"/>
			<point x="849" y="1000" type="line"/>
			<point x="849" y="847" type="line"/>
			<point x="477" y="851" type="line"/>
		</contour>
	</outline>
</glyph>
<glyph name="minute" format="2">
	<unicode hex="2032"/>
	<advance width="542"/>
	<outline>
		<contour>
			<point x="187" y="934" type="line"/>
			<point x="301" y="1404" type="line" smooth="yes"/>
			<point x="318" y="1467"/>
			<point x="428" y="1543"/>
			<point x="511" y="1521" type="qcurve" smooth="yes"/>
			<point x="587" y="1501"/>
			<point x="591" y="1350"/>
			<point x="543" y="1296" type="qcurve" smooth="yes"/>
			<point x="277" y="934" type="line"/>
		</contour>
	</outline>
</glyph>
<glyph name="second" format="2">
	<unicode hex="2033"/>
	<advance width="902"/>
	<outline>
		<contour>
			<point x="167" y="933" type="line"/>
			<point x="287" y="1397" type="line" smooth="yes"/>
			<point x="305" y="1460"/>
			<point x="408" y="1542"/>
			<point x="491" y="1520" type="qcurve" smooth="yes"/>
			<point x="567" y="1500"/>
			<point x="566" y="1360"/>
			<point x="519" y="1305" type="qcurve" smooth="yes"/>
			<point x="257" y="933" type="line"/>
		</contour>
		<contour>
			<point x="527" y="933" type="line"/>
			<point x="647" y="1397" type="line" smooth="yes"/>
			<point x="665" y="1460"/>
			<point x="768" y="1542"/>
			<point x="851" y="1520" type="qcurve" smooth="yes"/>
			<point x="927" y="1500"/>
			<point x="926" y="1360"/>
			<point x="879" y="1305" type="qcurve" smooth="yes"/>
			<point x="617" y="933" type="line"/>
		</contour>
	</outline>
</glyph>
<glyph name="guilsinglleft" format="2">
	<unicode hex="2039"/>
	<advance width="811"/>
	<outline>
		<contour>
			<point x="19" y="644" type="line"/>
			<point x="19" y="644"/>
			<point x="595" y="1010"/>
			<point x="664" y="1054" type="qcurve" smooth="yes"/>
			<point x="775" y="1122"/>
			<point x="837" y="950"/>
			<point x="730" y="879" type="qcurve" smooth="yes"/>
			<point x="583" y="777"/>
			<point x="336" y="610"/>
			<point x="336" y="610" type="qcurve"/>
			<point x="336" y="610"/>
			<point x="557" y="403"/>
			<point x="625" y="329" type="qcurve" smooth="yes"/>
			<point x="698" y="252"/>
			<point x="607" y="116"/>
			<point x="525" y="164" type="qcurve" smooth="yes"/>
			<point x="473" y="195"/>
			<point x="67" y="536"/>
			<point x="8" y="584" type="qcurve"/>
		</contour>
	</outline>
</glyph>
<glyph name="guilsinglright" format="2">
	<unicode hex="203A"/>
	<advance width="811"/>
	<outline>
		<contour>
			<point x="768" y="582" type="line"/>
			<point x="768" y="582"/>
			<point x="192" y="216"/>
			<point x="123" y="172" type="qcurve" smooth="yes"/>
			<point x="12" y="104"/>
			<point x="-50" y="276"/>
			<point x="57" y="347" type="qcurve" smooth="yes"/>
			<point x="204" y="449"/>
			<point x="451" y="616"/>
			<point x="451" y="616" type="qcurve"/>
			<point x="451" y="616"/>
			<point x="230" y="823"/>
			<point x="162" y="897" type="qcurve" smooth="yes"/>
			<point x="89" y="974"/>
			<point x="180" y="1110"/>
			<point x="262" y="1062" type="qcurve" smooth="yes"/>
			<point x="314" y="1031"/>
			<point x="720" y="690"/>
			<point x="779" y="642" type="qcurve"/>
		</contour>
	</outline>
</glyph>
<glyph name="foursuperior" format="2">
	<unicode hex="2074"/>
	<advance width="739"/>
	<outline>
		<contour>
			<point x="115" y="921" type="line"/>
			<point x="115" y="1001" type="line"/>
			<point x="582" y="1549" type="line"/>
			<point x="751" y="1493" type="line"/>
			<point x="765" y="1468" type="line"/>
			<point x="673" y="972" type="line"/>
			<point x="637" y="801" type="line"/>
			<point x="642" y="725" type="line"/>
			<point x="391" y="685" type="line"/>
			<point x="356" y="730" type="line"/>
			<point x="406" y="970" type="line"/>
			<point x="464" y="1290" type="line"/>
			<point x="251" y="1023" type="line"/>
			<point x="253" y="1018" type="line"/>
			<point x="538" y="1018" type="line"/>
			<point x="731" y="1018" type="line"/>
			<point x="713" y="921" type="line"/>
			<point x="532" y="913" type="line"/>
		</contour>
	</outline>
</glyph>
<glyph name="colonsign" format="2">
	<unicode hex="20A1"/>
	<advance width="1139"/>
	<outline>
		<contour>
			<point x="537" y="-72" type="line"/>
			<point x="584" y="117" type="line"/>
			<point x="613" y="112" type="line"/>
			<point x="788" y="871" type="line"/>
			<point x="851" y="803" type="line"/>
			<point x="695" y="103" type="line"/>
			<point x="735" y="99" type="line"/>
			<point x="694" y="-85" type="line"/>
		</contour>
		<contour>
			<point x="918" y="1585" type="line"/>
			<point x="1068" y="1585" type="line"/>
			<point x="1003" y="1304" type="line"/>
			<point x="969" y="1308" type="line"/>
			<point x="851" y="803" type="line"/>
			<point x="788" y="871" type="line"/>
			<point x="895" y="1332" type="line"/>
			<point x="862" y="1337" type="line"/>
		</contour>
		<contour>
			<point x="318" y="-63" type="line"/>
			<point x="374" y="157" type="line"/>
			<point x="413" y="152" type="line"/>
			<point x="583" y="871" type="line"/>
			<point x="646" y="803" type="line"/>
			<point x="495" y="143" type="line"/>
			<point x="524" y="132" type="line"/>
			<point x="478" y="-71" type="line"/>
		</contour>
		<contour>
			<point x="713" y="1587" type="line"/>
			<point x="863" y="1585" type="line"/>
			<point x="807" y="1344" type="line"/>
			<point x="773" y="1348" type="line"/>
			<point x="646" y="803" type="line"/>
			<point x="583" y="871" type="line"/>
			<point x="694" y="1338" type="line"/>
			<point x="661" y="1343" type="line"/>
		</contour>
		<contour>
			<point x="81" y="867" type="qcurve" smooth="yes"/>
			<point x="161" y="1195"/>
			<point x="561" y="1474"/>
			<point x="797" y="1438" type="qcurve" smooth="yes"/>
			<point x="1001" y="1407"/>
			<point x="1175" y="1168"/>
			<point x="1140" y="965" type="qcurve"/>
			<point x="972" y="965" type="line"/>
			<point x="985" y="1078"/>
			<point x="922" y="1228"/>
			<point x="808" y="1248" type="qcurve" smooth="yes"/>
			<point x="685" y="1270"/>
			<point x="528" y="1118"/>
			<point x="463" y="832" type="qcurve" smooth="yes"/>
			<point x="392" y="519"/>
			<point x="472" y="265"/>
			<point x="592" y="240" type="qcurve" smooth="yes"/>
			<point x="706" y="216"/>
			<point x="866" y="329"/>
			<point x="938" y="458" type="qcurve"/>
			<point x="957" y="457" type="line"/>
			<point x="1038" y="332" type="line"/>
			<point x="971" y="198"/>
			<point x="705" y="22"/>
			<point x="468" y="66" type="qcurve" smooth="yes"/>
			<point x="267" y="103"/>
			<point x="-11" y="491"/>
		</contour>
	</outline>
</glyph>
<glyph name="peseta" format="2">
	<unicode hex="20A7"/>
	<advance width="3074"/>
	<outline>
		<contour>
			<point x="-13" y="0" type="line"/>
			<point x="5" y="126" type="line"/>
			<point x="85" y="139" type="line"/>
			<point x="212" y="750" type="line"/>
			<point x="326" y="1339" type="line"/>
			<point x="191" y="1361" type="line"/>
			<point x="206" y="1500" type="line"/>
			<point x="976" y="1500" type="line" smooth="yes"/>
			<point x="1213" y="1500"/>
			<point x="1460" y="1277"/>
			<point x="1449" y="1051" type="qcurve" smooth="yes"/>
			<point x="1436" y="810"/>
			<point x="1137" y="487"/>
			<point x="828" y="487" type="qcurve" smooth="yes"/>
			<point x="763" y="487"/>
			<point x="600" y="504"/>
			<point x="559" y="516" type="qcurve"/>
			<point x="588" y="662" type="line"/>
			<point x="637" y="648"/>
			<point x="699" y="640"/>
			<point x="704" y="640" type="qcurve" smooth="yes"/>
			<point x="860" y="640"/>
			<point x="994" y="869"/>
			<point x="1005" y="1042" type="qcurve" smooth="yes"/>
			<point x="1012" y="1189"/>
			<point x="919" y="1342"/>
			<point x="784" y="1342" type="qcurve" smooth="yes"/>
			<point x="799" y="1342" type="line"/>
			<point x="773" y="1320" type="line"/>
			<point x="672" y="764" type="line"/>
			<point x="555" y="144" type="line"/>
			<point x="696" y="126" type="line"/>
			<point x="671" y="0" type="line"/>
		</contour>
		<contour>
			<point x="1453" y="-15" type="line"/>
			<point x="1388" y="103" type="line"/>
			<point x="1513" y="665" type="line"/>
			<point x="1546" y="820" type="line"/>
			<point x="1365" y="822" type="line"/>
			<point x="1387" y="956" type="line"/>
			<point x="1605" y="985"/>
			<point x="1792" y="1207"/>
			<point x="1799" y="1257" type="qcurve"/>
			<point x="1966" y="1257" type="line"/>
			<point x="2017" y="1180" type="line"/>
			<point x="1918" y="481" type="line"/>
			<point x="1877" y="204" type="line"/>
			<point x="2043" y="192" type="line"/>
			<point x="2038" y="61" type="line"/>
		</contour>
		<contour>
			<point x="1880" y="859" type="line"/>
			<point x="1932" y="1030" type="line"/>
			<point x="2197" y="1040" type="line"/>
			<point x="2190" y="865" type="line"/>
		</contour>
		<contour>
			<point x="2051" y="222" type="qcurve" smooth="yes"/>
			<point x="2049" y="307"/>
			<point x="2144" y="415"/>
			<point x="2233" y="415" type="qcurve" smooth="yes"/>
			<point x="2269" y="415" type="line"/>
			<point x="2273" y="240" type="line" smooth="yes"/>
			<point x="2275" y="189"/>
			<point x="2387" y="126"/>
			<point x="2478" y="126" type="qcurve" smooth="yes"/>
			<point x="2563" y="126"/>
			<point x="2631" y="170"/>
			<point x="2634" y="211" type="qcurve" smooth="yes"/>
			<point x="2636" y="259"/>
			<point x="2564" y="290"/>
			<point x="2412" y="380" type="qcurve" smooth="yes"/>
			<point x="2277" y="462"/>
			<point x="2161" y="636"/>
			<point x="2164" y="759" type="qcurve" smooth="yes"/>
			<point x="2169" y="907"/>
			<point x="2374" y="1073"/>
			<point x="2653" y="1073" type="qcurve" smooth="yes"/>
			<point x="2829" y="1073"/>
			<point x="3038" y="951"/>
			<point x="3040" y="860" type="qcurve" smooth="yes"/>
			<point x="3041" y="791"/>
			<point x="2923" y="724"/>
			<point x="2875" y="724" type="qcurve" smooth="yes"/>
			<point x="2837" y="724" type="line"/>
			<point x="2833" y="830" type="line" smooth="yes"/>
			<point x="2834" y="859"/>
			<point x="2730" y="935"/>
			<point x="2640" y="935" type="qcurve" smooth="yes"/>
			<point x="2574" y="935"/>
			<point x="2519" y="892"/>
			<point x="2519" y="853" type="qcurve" smooth="yes"/>
			<point x="2520" y="817"/>
			<point x="2575" y="775"/>
			<point x="2689" y="709" type="qcurve" smooth="yes"/>
			<point x="2847" y="619"/>
			<point x="2956" y="477"/>
			<point x="2956" y="357" type="qcurve" smooth="yes"/>
			<point x="2956" y="182"/>
			<point x="2700" y="-20"/>
			<point x="2463" y="-20" type="qcurve" smooth="yes"/>
			<point x="2259" y="-20"/>
			<point x="2052" y="112"/>
		</contour>
	</outline>
</glyph>
<glyph name="euro" format="2">
	<unicode hex="20AC"/>
	<advance width="1160"/>
	<outline>
		<contour>
			<point x="38" y="838" type="line"/>
			<point x="66" y="1014" type="line"/>
			<point x="1066" y="1014" type="line"/>
			<point x="1022" y="838" type="line"/>
		</contour>
		<contour>
			<point x="-42" y="511" type="line"/>
			<point x="-12" y="687" type="line"/>
			<point x="1008" y="687" type="line"/>
			<point x="958" y="511" type="line"/>
		</contour>
		<contour>
			<point x="1214" y="1251" type="line"/>
			<point x="1162" y="1287"/>
			<point x="1064" y="1335"/>
			<point x="994" y="1335" type="qcurve" smooth="yes"/>
			<point x="847" y="1335"/>
			<point x="696" y="1056"/>
			<point x="641" y="772" type="qcurve" smooth="yes"/>
			<point x="580" y="450"/>
			<point x="614" y="133"/>
			<point x="780" y="133" type="qcurve" smooth="yes"/>
			<point x="879" y="133"/>
			<point x="999" y="201"/>
			<point x="1050" y="251" type="qcurve"/>
			<point x="1093" y="133" type="line"/>
			<point x="1000" y="43"/>
			<point x="769" y="-27"/>
			<point x="607" y="-27" type="qcurve" smooth="yes"/>
			<point x="316" y="-27"/>
			<point x="92" y="374"/>
			<point x="164" y="746" type="qcurve" smooth="yes"/>
			<point x="239" y="1131"/>
			<point x="664" y="1519"/>
			<point x="918" y="1519" type="qcurve" smooth="yes"/>
			<point x="1050" y="1519"/>
			<point x="1255" y="1447"/>
			<point x="1307" y="1377" type="qcurve"/>
		</contour>
	</outline>
</glyph>
<glyph name="guarani" format="2">
	<unicode hex="20B2"/>
	<advance width="1243"/>
	<outline>
		<contour>
			<point x="420" y="-122" type="line"/>
			<point x="465" y="86" type="line"/>
			<point x="503" y="81" type="line"/>
			<point x="660" y="871" type="line"/>
			<point x="733" y="803" type="line"/>
			<point x="586" y="54" type="line"/>
			<point x="616" y="50" type="line"/>
			<point x="582" y="-109" type="line"/>
		</contour>
		<contour>
			<point x="764" y="1622" type="line"/>
			<point x="925" y="1622" type="line"/>
			<point x="886" y="1424" type="line"/>
			<point x="855" y="1428" type="line"/>
			<point x="733" y="803" type="line"/>
			<point x="660" y="870" type="line"/>
			<point x="773" y="1454" type="line"/>
			<point x="733" y="1460" type="line"/>
		</contour>
		<contour>
			<point x="51" y="839" type="qcurve" smooth="yes"/>
			<point x="115" y="1177"/>
			<point x="579" y="1534"/>
			<point x="873" y="1504" type="qcurve" smooth="yes"/>
			<point x="1045" y="1486"/>
			<point x="1234" y="1237"/>
			<point x="1230" y="1046" type="qcurve"/>
			<point x="1002" y="1046" type="line"/>
			<point x="1017" y="1160"/>
			<point x="927" y="1321"/>
			<point x="841" y="1341" type="qcurve" smooth="yes"/>
			<point x="750" y="1365"/>
			<point x="572" y="1153"/>
			<point x="498" y="842" type="qcurve" smooth="yes"/>
			<point x="436" y="581"/>
			<point x="428" y="191"/>
			<point x="564" y="175" type="qcurve" smooth="yes"/>
			<point x="656" y="164"/>
			<point x="734" y="202"/>
			<point x="767" y="243" type="qcurve"/>
			<point x="816" y="569" type="line"/>
			<point x="757" y="594" type="line"/>
			<point x="787" y="732" type="line"/>
			<point x="1210" y="732" type="line"/>
			<point x="1110" y="162" type="line"/>
			<point x="1064" y="132" type="line"/>
			<point x="938" y="58"/>
			<point x="690" y="-11"/>
			<point x="515" y="7" type="qcurve" smooth="yes"/>
			<point x="230" y="36"/>
			<point x="-21" y="461"/>
		</contour>
	</outline>
</glyph>
<glyph name="cedi" format="2">
	<unicode hex="20B5"/>
	<advance width="1139"/>
	<outline>
		<contour>
			<point x="69" y="822" type="qcurve" smooth="yes"/>
			<point x="141" y="1181"/>
			<point x="554" y="1471"/>
			<point x="795" y="1438" type="qcurve" smooth="yes"/>
			<point x="962" y="1415"/>
			<point x="1130" y="1169"/>
			<point x="1099" y="965" type="qcurve"/>
			<point x="920" y="965" type="line"/>
			<point x="923" y="1061"/>
			<point x="891" y="1232"/>
			<point x="805" y="1248" type="qcurve" smooth="yes"/>
			<point x="725" y="1262"/>
			<point x="553" y="1065"/>
			<point x="506" y="845" type="qcurve" smooth="yes"/>
			<point x="446" y="575"/>
			<point x="485" y="266"/>
			<point x="602" y="238" type="qcurve" smooth="yes"/>
			<point x="704" y="214"/>
			<point x="866" y="333"/>
			<point x="939" y="457" type="qcurve"/>
			<point x="957" y="457" type="line"/>
			<point x="1037" y="335" type="line"/>
			<point x="977" y="202"/>
			<point x="727" y="46"/>
			<point x="505" y="63" type="qcurve" smooth="yes"/>
			<point x="292" y="79"/>
			<point x="-6" y="452"/>
		</contour>
		<contour>
			<point x="418" y="-97" type="line"/>
			<point x="470" y="111" type="line"/>
			<point x="488" y="106" type="line"/>
			<point x="667" y="871" type="line"/>
			<point x="755" y="803" type="line"/>
			<point x="588" y="79" type="line"/>
			<point x="608" y="75" type="line"/>
			<point x="569" y="-84" type="line"/>
		</contour>
		<contour>
			<point x="811" y="1586" type="line"/>
			<point x="960" y="1586" type="line"/>
			<point x="913" y="1388" type="line"/>
			<point x="892" y="1392" type="line"/>
			<point x="755" y="803" type="line"/>
			<point x="667" y="871" type="line"/>
			<point x="793" y="1419" type="line"/>
			<point x="773" y="1424" type="line"/>
		</contour>
	</outline>
</glyph>
<glyph name="minus" format="2">
	<unicode hex="2212"/>
	<advance width="889"/>
	<outline>
		<contour>
			<point x="44" y="505" type="line"/>
			<point x="44" y="759" type="line"/>
			<point x="804" y="759" type="line"/>
			<point x="804" y="505" type="line"/>
		</contour>
	</outline>
</glyph>
<glyph name="divisionslash" format="2">
	<unicode hex="2215"/>
	<advance width="634"/>
	<outline>
		<contour>
			<point x="-79" y="-80" type="line"/>
			<point x="538" y="1598" type="line"/>
			<point x="813" y="1526" type="line"/>
			<point x="197" y="-150" type="line"/>
		</contour>
	</outline>
</glyph>
<glyph name="bulletoperator" format="2">
	<unicode hex="2219"/>
	<advance width="934"/>
	<outline>
		<contour>
			<point x="357" y="611" type="qcurve" smooth="yes"/>
			<point x="357" y="706"/>
			<point x="495" y="845"/>
			<point x="602" y="845" type="qcurve" smooth="yes"/>
			<point x="709" y="845"/>
			<point x="848" y="706"/>
			<point x="848" y="611" type="qcurve" smooth="yes"/>
			<point x="848" y="519"/>
			<point x="709" y="379"/>
			<point x="602" y="379" type="qcurve" smooth="yes"/>
			<point x="495" y="379"/>
			<point x="357" y="519"/>
		</contour>
	</outline>
</glyph>
<glyph name="approxequal" format="2">
	<unicode hex="2248"/>
	<advance width="889"/>
	<outline>
		<contour>
			<point x="34" y="850" type="line"/>
			<point x="83" y="943"/>
			<point x="227" y="1055"/>
			<point x="298" y="1055" type="qcurve"/>
			<point x="622" y="920" type="line"/>
			<point x="670" y="920"/>
			<point x="738" y="968"/>
			<point x="770" y="1012" type="qcurve"/>
			<point x="842" y="860" type="line"/>
			<point x="800" y="756"/>
			<point x="688" y="665"/>
			<point x="582" y="665" type="qcurve"/>
			<point x="276" y="792" type="line"/>
			<point x="228" y="792"/>
			<point x="134" y="738"/>
			<point x="88" y="686" type="qcurve"/>
		</contour>
		<contour>
			<point x="-16" y="461" type="line"/>
			<point x="33" y="554"/>
			<point x="177" y="666"/>
			<point x="248" y="666" type="qcurve"/>
			<point x="572" y="531" type="line"/>
			<point x="620" y="531"/>
			<point x="688" y="573"/>
			<point x="720" y="623" type="qcurve"/>
			<point x="792" y="471" type="line"/>
			<point x="749" y="373"/>
			<point x="637" y="276"/>
			<point x="531" y="276" type="qcurve"/>
			<point x="225" y="403" type="line"/>
			<point x="177" y="403"/>
			<point x="84" y="349"/>
			<point x="38" y="297" type="qcurve"/>
		</contour>
	</outline>
</glyph>
<glyph name="notequal" format="2">
	<unicode hex="2260"/>
	<advance width="889"/>
	<outline>
		<contour>
			<point x="44" y="338" type="line"/>
			<point x="44" y="544" type="line"/>
			<point x="378" y="540" type="line"/>
			<point x="776" y="544" type="line"/>
			<point x="776" y="338" type="line"/>
			<point x="389" y="342" type="line"/>
		</contour>
		<contour>
			<point x="44" y="708" type="line"/>
			<point x="44" y="914" type="line"/>
			<point x="398" y="910" type="line"/>
			<point x="776" y="914" type="line"/>
			<point x="776" y="708" type="line"/>
			<point x="398" y="712" type="line"/>
		</contour>
		<contour>
			<point x="101" y="203" type="line"/>
			<point x="555" y="1123" type="line"/>
			<point x="721" y="1061" type="line"/>
			<point x="278" y="142" type="line"/>
		</contour>
	</outline>
</glyph>
<glyph name="lessequal" format="2">
	<unicode hex="2264"/>
	<advance width="889"/>
	<outline>
		<contour>
			<point x="-86" y="0" type="line"/>
			<point x="-86" y="224" type="line"/>
			<point x="734" y="224" type="line"/>
			<point x="734" y="0" type="line"/>
		</contour>
		<contour>
			<point x="-30" y="757" type="qcurve"/>
			<point x="-30" y="757"/>
			<point x="625" y="1144"/>
			<point x="716" y="1199" type="qcurve" smooth="yes"/>
			<point x="828" y="1267"/>
			<point x="947" y="1098"/>
			<point x="848" y="1024" type="qcurve" smooth="yes"/>
			<point x="707" y="919"/>
			<point x="471" y="780"/>
			<point x="427" y="760" type="qcurve"/>
			<point x="460" y="736"/>
			<point x="650" y="556"/>
			<point x="729" y="460" type="qcurve"/>
			<point x="790" y="387"/>
			<point x="617" y="248"/>
			<point x="552" y="304" type="qcurve" smooth="yes"/>
			<point x="490" y="359"/>
			<point x="-30" y="757"/>
		</contour>
	</outline>
</glyph>
<glyph name="greaterequal" format="2">
	<unicode hex="2265"/>
	<advance width="889"/>
	<outline>
		<contour>
			<point x="-86" y="-2" type="line"/>
			<point x="-86" y="222" type="line"/>
			<point x="734" y="222" type="line"/>
			<point x="734" y="-2" type="line"/>
		</contour>
		<contour>
			<point x="109" y="491" type="qcurve" smooth="yes"/>
			<point x="250" y="596"/>
			<point x="486" y="735"/>
			<point x="530" y="755" type="qcurve"/>
			<point x="497" y="779"/>
			<point x="307" y="959"/>
			<point x="228" y="1055" type="qcurve"/>
			<point x="167" y="1128"/>
			<point x="340" y="1267"/>
			<point x="405" y="1211" type="qcurve" smooth="yes"/>
			<point x="467" y="1156"/>
			<point x="987" y="758"/>
			<point x="987" y="758" type="qcurve"/>
			<point x="987" y="758"/>
			<point x="332" y="371"/>
			<point x="241" y="316" type="qcurve" smooth="yes"/>
			<point x="129" y="248"/>
			<point x="10" y="417"/>
		</contour>
	</outline>
</glyph>
<glyph name="rightanglebracket" format="2">
	<unicode hex="27E9"/>
	<advance width="1021"/>
	<outline>
		<contour>
			<point x="97" y="-110" type="line"/>
			<point x="-51" y="97" type="line"/>
			<point x="642" y="710" type="line"/>
			<point x="203" y="1301" type="line"/>
			<point x="384" y="1508" type="line"/>
			<point x="998" y="778" type="line"/>
			<point x="975" y="613" type="line"/>
		</contour>
	</outline>
</glyph>
<glyph name="acutecomb.case" format="2">
	<advance width="1024"/>
	<outline>
		<contour>
			<point x="420" y="1685" type="line"/>
			<point x="592" y="1912" type="line" smooth="yes"/>
			<point x="636" y="1969"/>
			<point x="729" y="2051"/>
			<point x="777" y="2051" type="qcurve" smooth="yes"/>
			<point x="831" y="2051"/>
			<point x="908" y="1975"/>
			<point x="908" y="1930" type="qcurve" smooth="yes"/>
			<point x="908" y="1884"/>
			<point x="866" y="1804"/>
			<point x="813" y="1774" type="qcurve" smooth="yes"/>
			<point x="505" y="1601" type="line"/>
		</contour>
	</outline>
</glyph>
<glyph name="acutecombstack.case" format="2">
	<advance width="1024"/>
	<outline>
		<contour>
			<point x="955" y="1965" type="qcurve" smooth="yes"/>
			<point x="961" y="1917"/>
			<point x="902" y="1820"/>
			<point x="830" y="1778" type="qcurve" smooth="yes"/>
			<point x="535" y="1629" type="line"/>
			<point x="459" y="1719" type="line"/>
			<point x="664" y="1942" type="line" smooth="yes"/>
			<point x="705" y="1988"/>
			<point x="777" y="2058"/>
			<point x="809" y="2066" type="qcurve" smooth="yes"/>
			<point x="864" y="2073"/>
			<point x="947" y="2003"/>
		</contour>
	</outline>
</glyph>
<glyph name="breve.cyr.case" format="2">
	<advance width="1024"/>
	<outline>
		<contour>
			<point x="788" y="1781" type="qcurve" smooth="yes"/>
			<point x="875" y="1781"/>
			<point x="982" y="1906"/>
			<point x="1029" y="2029" type="qcurve"/>
			<point x="1218" y="1942" type="line"/>
			<point x="1143" y="1783"/>
			<point x="936" y="1623"/>
			<point x="782" y="1623" type="qcurve" smooth="yes"/>
			<point x="621" y="1623"/>
			<point x="433" y="1779"/>
			<point x="394" y="1942" type="qcurve"/>
			<point x="617" y="2029" type="line"/>
			<point x="631" y="1899"/>
			<point x="706" y="1781"/>
		</contour>
	</outline>
	<guideline x="128" y="1963" angle="79" identifier="fVxn9SXdll"/>
</glyph>
<glyph name="brevebelowcomb.case" format="2">
	<advance width="1024"/>
	<outline>
		<contour>
			<point x="566" y="-174" type="qcurve"/>
			<point x="657" y="-219" type="line"/>
			<point x="607" y="-368"/>
			<point x="411" y="-544"/>
			<point x="236" y="-544" type="qcurve" smooth="yes"/>
			<point x="79" y="-544"/>
			<point x="-83" y="-353"/>
			<point x="-89" y="-225" type="qcurve"/>
			<point x="37" y="-179" type="line"/>
			<point x="58" y="-251"/>
			<point x="170" y="-351"/>
			<point x="275" y="-351" type="qcurve" smooth="yes"/>
			<point x="376" y="-351"/>
			<point x="512" y="-264"/>
		</contour>
	</outline>
</glyph>
<glyph name="brevebelowcomb" format="2">
	<advance width="1024"/>
	<outline>
		<contour>
			<point x="610" y="-158" type="qcurve"/>
			<point x="696" y="-210" type="line"/>
			<point x="664" y="-326"/>
			<point x="441" y="-526"/>
			<point x="294" y="-526" type="qcurve" smooth="yes"/>
			<point x="149" y="-526"/>
			<point x="11" y="-339"/>
			<point x="22" y="-202" type="qcurve"/>
			<point x="105" y="-161" type="line"/>
			<point x="124" y="-236"/>
			<point x="236" y="-337"/>
			<point x="332" y="-337" type="qcurve" smooth="yes"/>
			<point x="433" y="-337"/>
			<point x="571" y="-230"/>
		</contour>
	</outline>
</glyph>
<glyph name="brevecomb.case" format="2">
	<advance width="1024"/>
	<outline>
		<contour>
			<point x="1048" y="1982" type="qcurve"/>
			<point x="1125" y="1944" type="line"/>
			<point x="1090" y="1834"/>
			<point x="859" y="1609"/>
			<point x="704" y="1609" type="qcurve" smooth="yes"/>
			<point x="547" y="1609"/>
			<point x="395" y="1811"/>
			<point x="408" y="1942" type="qcurve"/>
			<point x="505" y="1984" type="line"/>
			<point x="526" y="1912"/>
			<point x="638" y="1812"/>
			<point x="743" y="1812" type="qcurve" smooth="yes"/>
			<point x="854" y="1812"/>
			<point x="1008" y="1915"/>
		</contour>
	</outline>
</glyph>
<glyph name="brevecombstack.case" format="2">
	<advance width="1024"/>
	<outline>
		<contour>
			<point x="1026" y="1952" type="qcurve"/>
			<point x="1106" y="1909" type="line"/>
			<point x="1070" y="1793"/>
			<point x="848" y="1609"/>
			<point x="701" y="1609" type="qcurve" smooth="yes"/>
			<point x="543" y="1609"/>
			<point x="409" y="1781"/>
			<point x="421" y="1912" type="qcurve"/>
			<point x="501" y="1947" type="line"/>
			<point x="524" y="1875"/>
			<point x="631" y="1792"/>
			<point x="738" y="1792" type="qcurve" smooth="yes"/>
			<point x="843" y="1792"/>
			<point x="989" y="1885"/>
		</contour>
	</outline>
</glyph>
<glyph name="breveinvertedcomb.case" format="2">
	<advance width="1024"/>
	<outline>
		<contour>
			<point x="364" y="1624" type="qcurve"/>
			<point x="278" y="1668" type="line"/>
			<point x="318" y="1789"/>
			<point x="569" y="2018"/>
			<point x="739" y="2018" type="qcurve" smooth="yes"/>
			<point x="909" y="2018"/>
			<point x="1080" y="1813"/>
			<point x="1069" y="1661" type="qcurve"/>
			<point x="961" y="1613" type="line"/>
			<point x="938" y="1701"/>
			<point x="813" y="1811"/>
			<point x="699" y="1811" type="qcurve" smooth="yes"/>
			<point x="579" y="1811"/>
			<point x="410" y="1699"/>
		</contour>
	</outline>
</glyph>
<glyph name="breveinvertedcomb" format="2">
	<advance width="1024"/>
	<outline>
		<contour>
			<point x="317" y="1116" type="qcurve"/>
			<point x="228" y="1162" type="line"/>
			<point x="280" y="1314"/>
			<point x="496" y="1484"/>
			<point x="649" y="1484" type="qcurve" smooth="yes"/>
			<point x="801" y="1484"/>
			<point x="948" y="1297"/>
			<point x="937" y="1150" type="qcurve"/>
			<point x="840" y="1105" type="line"/>
			<point x="820" y="1190"/>
			<point x="711" y="1295"/>
			<point x="611" y="1295" type="qcurve" smooth="yes"/>
			<point x="504" y="1295"/>
			<point x="358" y="1188"/>
		</contour>
	</outline>
</glyph>
<glyph name="caroncomb.case" format="2">
	<advance width="1024"/>
	<outline>
		<contour>
			<point x="662" y="1578" type="qcurve" smooth="yes"/>
			<point x="621" y="1578"/>
			<point x="563" y="1629"/>
			<point x="528" y="1686" type="qcurve" smooth="yes"/>
			<point x="352" y="1972" type="line"/>
			<point x="458" y="2055" type="line"/>
			<point x="700" y="1811" type="line"/>
			<point x="1052" y="2058" type="line"/>
			<point x="1128" y="1966" type="line"/>
			<point x="832" y="1686" type="line" smooth="yes"/>
			<point x="772" y="1629"/>
			<point x="703" y="1578"/>
		</contour>
	</outline>
</glyph>
<glyph name="cent.rvrn" format="2">
	<advance width="958"/>
	<outline>
		<contour>
			<point x="329" y="-100" type="line"/>
			<point x="375" y="162" type="line"/>
			<point x="392" y="162" type="line"/>
			<point x="396" y="185" type="line"/>
			<point x="511" y="185" type="line"/>
			<point x="506" y="162" type="line"/>
			<point x="525" y="162" type="line"/>
			<point x="482" y="-95" type="line"/>
		</contour>
		<contour>
			<point x="595" y="1301" type="line"/>
			<point x="746" y="1312" type="line"/>
			<point x="709" y="1098" type="line"/>
			<point x="691" y="1098" type="line"/>
			<point x="683" y="1058" type="line"/>
			<point x="570" y="1058" type="line"/>
			<point x="577" y="1098" type="line"/>
			<point x="559" y="1098" type="line"/>
		</contour>
		<contour>
			<point x="-23" y="599" type="qcurve" smooth="yes"/>
			<point x="19" y="868"/>
			<point x="373" y="1163"/>
			<point x="628" y="1163" type="qcurve" smooth="yes"/>
			<point x="825" y="1163"/>
			<point x="956" y="1039"/>
			<point x="953" y="932" type="qcurve" smooth="yes"/>
			<point x="951" y="869"/>
			<point x="883" y="767"/>
			<point x="790" y="734" type="qcurve" smooth="yes"/>
			<point x="734" y="752" type="line"/>
			<point x="734" y="955" type="line" smooth="yes"/>
			<point x="734" y="973"/>
			<point x="698" y="1008"/>
			<point x="652" y="1008" type="qcurve" smooth="yes"/>
			<point x="587" y="1008"/>
			<point x="501" y="831"/>
			<point x="471" y="627" type="qcurve" smooth="yes"/>
			<point x="443" y="438"/>
			<point x="493" y="284"/>
			<point x="571" y="284" type="qcurve" smooth="yes"/>
			<point x="635" y="284"/>
			<point x="745" y="373"/>
			<point x="791" y="448" type="qcurve"/>
			<point x="861" y="361" type="line"/>
			<point x="859" y="311" type="line"/>
			<point x="799" y="218"/>
			<point x="582" y="83"/>
			<point x="365" y="83" type="qcurve" smooth="yes"/>
			<point x="159" y="83"/>
			<point x="-59" y="363"/>
		</contour>
	</outline>
</glyph>
<glyph name="circumflexcomb.case" format="2">
	<advance width="1024"/>
	<outline>
		<contour>
			<point x="743" y="2054" type="qcurve" smooth="yes"/>
			<point x="777" y="2054"/>
			<point x="849" y="1990"/>
			<point x="884" y="1934" type="qcurve" smooth="yes"/>
			<point x="1046" y="1675" type="line"/>
			<point x="940" y="1587" type="line"/>
			<point x="702" y="1815" type="line"/>
			<point x="376" y="1574" type="line"/>
			<point x="293" y="1655" type="line"/>
			<point x="562" y="1934" type="line" smooth="yes"/>
			<point x="621" y="1995"/>
			<point x="709" y="2054"/>
		</contour>
	</outline>
</glyph>
<glyph name="circumflexcombstack.case" format="2">
	<advance width="1024"/>
	<outline>
		<contour>
			<point x="836" y="2063" type="qcurve" smooth="yes"/>
			<point x="877" y="2063"/>
			<point x="946" y="2015"/>
			<point x="976" y="1957" type="qcurve" smooth="yes"/>
			<point x="1117" y="1675" type="line"/>
			<point x="997" y="1597" type="line"/>
			<point x="800" y="1848" type="line"/>
			<point x="454" y="1592" type="line"/>
			<point x="374" y="1675" type="line"/>
			<point x="652" y="1957" type="line" smooth="yes"/>
			<point x="707" y="2014"/>
			<point x="795" y="2063"/>
		</contour>
	</outline>
</glyph>
<glyph name="commaaccentcomb.case" format="2">
	<advance width="1024"/>
	<outline>
		<contour>
			<point x="134" y="-646" type="line"/>
			<point x="184" y="-620"/>
			<point x="292" y="-521"/>
			<point x="317" y="-467" type="qcurve"/>
			<point x="240" y="-467"/>
			<point x="175" y="-378"/>
			<point x="183" y="-317" type="qcurve" smooth="yes"/>
			<point x="192" y="-252"/>
			<point x="286" y="-165"/>
			<point x="359" y="-165" type="qcurve" smooth="yes"/>
			<point x="430" y="-165"/>
			<point x="513" y="-252"/>
			<point x="506" y="-331" type="qcurve" smooth="yes"/>
			<point x="495" y="-455"/>
			<point x="288" y="-657"/>
			<point x="173" y="-704" type="qcurve"/>
		</contour>
	</outline>
</glyph>
<glyph name="commaaccentcomb" format="2">
	<advance width="1024"/>
	<outline>
		<contour>
			<point x="180" y="-591" type="line"/>
			<point x="270" y="-539"/>
			<point x="366" y="-445"/>
			<point x="387" y="-399" type="qcurve"/>
			<point x="321" y="-397"/>
			<point x="244" y="-342"/>
			<point x="244" y="-279" type="qcurve" smooth="yes"/>
			<point x="244" y="-207"/>
			<point x="343" y="-122"/>
			<point x="410" y="-122" type="qcurve" smooth="yes"/>
			<point x="473" y="-122"/>
			<point x="549" y="-196"/>
			<point x="549" y="-266" type="qcurve" smooth="yes"/>
			<point x="549" y="-386"/>
			<point x="322" y="-613"/>
			<point x="216" y="-654" type="qcurve"/>
		</contour>
	</outline>
</glyph>
<glyph name="dblgravecomb.case" format="2">
	<advance width="1024"/>
	<outline>
		<contour>
			<point x="177" y="1965" type="qcurve" smooth="yes"/>
			<point x="187" y="2004"/>
			<point x="273" y="2054"/>
			<point x="313" y="2050" type="qcurve" smooth="yes"/>
			<point x="358" y="2045"/>
			<point x="425" y="1970"/>
			<point x="455" y="1908" type="qcurve" smooth="yes"/>
			<point x="566" y="1652" type="line"/>
			<point x="486" y="1592" type="line"/>
			<point x="240" y="1793" type="line" smooth="yes"/>
			<point x="196" y="1831"/>
			<point x="164" y="1926"/>
		</contour>
		<contour>
			<point x="533" y="1966" type="qcurve" smooth="yes"/>
			<point x="544" y="2004"/>
			<point x="630" y="2057"/>
			<point x="671" y="2051" type="qcurve" smooth="yes"/>
			<point x="716" y="2044"/>
			<point x="781" y="1970"/>
			<point x="812" y="1908" type="qcurve" smooth="yes"/>
			<point x="924" y="1653" type="line"/>
			<point x="843" y="1592" type="line"/>
			<point x="598" y="1793" type="line" smooth="yes"/>
			<point x="554" y="1831"/>
			<point x="521" y="1926"/>
		</contour>
	</outline>
</glyph>
<glyph name="dblgravecomb" format="2">
	<advance width="1024"/>
	<outline>
		<contour>
			<point x="168" y="1418" type="qcurve" smooth="yes"/>
			<point x="164" y="1459"/>
			<point x="231" y="1540"/>
			<point x="280" y="1547" type="qcurve" smooth="yes"/>
			<point x="325" y="1555"/>
			<point x="414" y="1500"/>
			<point x="450" y="1457" type="qcurve" smooth="yes"/>
			<point x="627" y="1246" type="line"/>
			<point x="561" y="1159" type="line"/>
			<point x="250" y="1302" type="line" smooth="yes"/>
			<point x="204" y="1321"/>
			<point x="171" y="1377"/>
		</contour>
		<contour>
			<point x="591" y="1426" type="qcurve" smooth="yes"/>
			<point x="587" y="1468"/>
			<point x="654" y="1548"/>
			<point x="702" y="1556" type="qcurve" smooth="yes"/>
			<point x="748" y="1565"/>
			<point x="831" y="1509"/>
			<point x="867" y="1467" type="qcurve" smooth="yes"/>
			<point x="1050" y="1256" type="line"/>
			<point x="984" y="1168" type="line"/>
			<point x="667" y="1312" type="line" smooth="yes"/>
			<point x="621" y="1333"/>
			<point x="594" y="1386"/>
		</contour>
	</outline>
</glyph>
<glyph name="dieresisbelowcomb.case" format="2">
	<advance width="1024"/>
	<outline>
		<contour>
			<point x="-33" y="-318" type="qcurve" smooth="yes"/>
			<point x="-33" y="-251"/>
			<point x="51" y="-169"/>
			<point x="119" y="-169" type="qcurve" smooth="yes"/>
			<point x="187" y="-169"/>
			<point x="272" y="-253"/>
			<point x="272" y="-318" type="qcurve" smooth="yes"/>
			<point x="272" y="-385"/>
			<point x="187" y="-467"/>
			<point x="119" y="-467" type="qcurve" smooth="yes"/>
			<point x="52" y="-467"/>
			<point x="-33" y="-384"/>
		</contour>
		<contour>
			<point x="425" y="-318" type="qcurve" smooth="yes"/>
			<point x="425" y="-251"/>
			<point x="510" y="-169"/>
			<point x="577" y="-169" type="qcurve" smooth="yes"/>
			<point x="645" y="-169"/>
			<point x="730" y="-253"/>
			<point x="730" y="-318" type="qcurve" smooth="yes"/>
			<point x="730" y="-385"/>
			<point x="646" y="-467"/>
			<point x="577" y="-467" type="qcurve" smooth="yes"/>
			<point x="510" y="-467"/>
			<point x="425" y="-384"/>
		</contour>
	</outline>
</glyph>
<glyph name="dieresisbelowcomb" format="2">
	<advance width="1024"/>
	<outline>
		<contour>
			<point x="439" y="-280" type="qcurve" smooth="yes"/>
			<point x="439" y="-215"/>
			<point x="511" y="-146"/>
			<point x="577" y="-146" type="qcurve" smooth="yes"/>
			<point x="641" y="-146"/>
			<point x="715" y="-220"/>
			<point x="715" y="-280" type="qcurve" smooth="yes"/>
			<point x="715" y="-346"/>
			<point x="645" y="-416"/>
			<point x="577" y="-416" type="qcurve" smooth="yes"/>
			<point x="513" y="-416"/>
			<point x="439" y="-342"/>
		</contour>
		<contour>
			<point x="5" y="-280" type="qcurve" smooth="yes"/>
			<point x="5" y="-215"/>
			<point x="76" y="-146"/>
			<point x="143" y="-146" type="qcurve" smooth="yes"/>
			<point x="207" y="-146"/>
			<point x="281" y="-220"/>
			<point x="281" y="-280" type="qcurve" smooth="yes"/>
			<point x="281" y="-346"/>
			<point x="210" y="-416"/>
			<point x="143" y="-416" type="qcurve" smooth="yes"/>
			<point x="79" y="-416"/>
			<point x="5" y="-342"/>
		</contour>
	</outline>
</glyph>
<glyph name="dieresiscomb.case" format="2">
	<advance width="1024"/>
	<outline>
		<contour>
			<point x="309" y="1755" type="qcurve" smooth="yes"/>
			<point x="309" y="1826"/>
			<point x="386" y="1901"/>
			<point x="459" y="1901" type="qcurve" smooth="yes"/>
			<point x="528" y="1901"/>
			<point x="609" y="1820"/>
			<point x="609" y="1755" type="qcurve" smooth="yes"/>
			<point x="609" y="1684"/>
			<point x="532" y="1608"/>
			<point x="459" y="1608" type="qcurve" smooth="yes"/>
			<point x="390" y="1608"/>
			<point x="309" y="1688"/>
		</contour>
		<contour>
			<point x="757" y="1755" type="qcurve" smooth="yes"/>
			<point x="757" y="1826"/>
			<point x="835" y="1901"/>
			<point x="907" y="1901" type="qcurve" smooth="yes"/>
			<point x="976" y="1901"/>
			<point x="1057" y="1820"/>
			<point x="1057" y="1755" type="qcurve" smooth="yes"/>
			<point x="1057" y="1684"/>
			<point x="981" y="1608"/>
			<point x="907" y="1608" type="qcurve" smooth="yes"/>
			<point x="838" y="1608"/>
			<point x="757" y="1688"/>
		</contour>
	</outline>
</glyph>
<glyph name="dotaccentcomb.case" format="2">
	<advance width="1024"/>
	<outline>
		<contour>
			<point x="530" y="1790" type="qcurve" smooth="yes"/>
			<point x="530" y="1865"/>
			<point x="611" y="1944"/>
			<point x="687" y="1944" type="qcurve" smooth="yes"/>
			<point x="759" y="1944"/>
			<point x="844" y="1859"/>
			<point x="844" y="1790" type="qcurve" smooth="yes"/>
			<point x="844" y="1716"/>
			<point x="765" y="1636"/>
			<point x="687" y="1636" type="qcurve" smooth="yes"/>
			<point x="615" y="1636"/>
			<point x="530" y="1720"/>
		</contour>
	</outline>
</glyph>
<glyph name="dotaccentcombstack.case" format="2">
	<advance width="1024"/>
	<outline>
		<contour>
			<point x="560" y="1790" type="qcurve" smooth="yes"/>
			<point x="560" y="1865"/>
			<point x="641" y="1944"/>
			<point x="717" y="1944" type="qcurve" smooth="yes"/>
			<point x="789" y="1944"/>
			<point x="874" y="1859"/>
			<point x="874" y="1790" type="qcurve" smooth="yes"/>
			<point x="874" y="1716"/>
			<point x="795" y="1636"/>
			<point x="717" y="1636" type="qcurve" smooth="yes"/>
			<point x="645" y="1636"/>
			<point x="560" y="1720"/>
		</contour>
	</outline>
</glyph>
<glyph name="dotbelowcomb.case" format="2">
	<advance width="1024"/>
	<outline>
		<contour>
			<point x="176" y="-300" type="qcurve" smooth="yes"/>
			<point x="176" y="-225"/>
			<point x="257" y="-146"/>
			<point x="333" y="-146" type="qcurve" smooth="yes"/>
			<point x="405" y="-146"/>
			<point x="490" y="-231"/>
			<point x="490" y="-300" type="qcurve" smooth="yes"/>
			<point x="490" y="-374"/>
			<point x="411" y="-454"/>
			<point x="333" y="-454" type="qcurve" smooth="yes"/>
			<point x="261" y="-454"/>
			<point x="176" y="-370"/>
		</contour>
	</outline>
</glyph>
<glyph name="dotbelowcomb" format="2">
	<advance width="1024"/>
	<outline>
		<contour>
			<point x="220" y="-257" type="qcurve" smooth="yes"/>
			<point x="220" y="-185"/>
			<point x="297" y="-112"/>
			<point x="368" y="-112" type="qcurve" smooth="yes"/>
			<point x="436" y="-112"/>
			<point x="516" y="-191"/>
			<point x="516" y="-257" type="qcurve" smooth="yes"/>
			<point x="516" y="-326"/>
			<point x="441" y="-401"/>
			<point x="368" y="-401" type="qcurve" smooth="yes"/>
			<point x="301" y="-401"/>
			<point x="220" y="-322"/>
		</contour>
	</outline>
</glyph>
<glyph name="eight.lc" format="2">
	<advance width="1208"/>
	<outline>
		<contour>
			<point x="13" y="266" type="qcurve" smooth="yes"/>
			<point x="18" y="410"/>
			<point x="282" y="609"/>
			<point x="557" y="684" type="qcurve"/>
			<point x="666" y="605" type="line"/>
			<point x="528" y="549"/>
			<point x="308" y="399"/>
			<point x="304" y="283" type="qcurve" smooth="yes"/>
			<point x="301" y="208"/>
			<point x="400" y="106"/>
			<point x="515" y="106" type="qcurve" smooth="yes"/>
			<point x="633" y="106"/>
			<point x="759" y="222"/>
			<point x="763" y="308" type="qcurve" smooth="yes"/>
			<point x="768" y="398"/>
			<point x="547" y="520"/>
			<point x="481" y="557" type="qcurve" smooth="yes"/>
			<point x="369" y="618"/>
			<point x="238" y="806"/>
			<point x="244" y="925" type="qcurve" smooth="yes"/>
			<point x="250" y="1064"/>
			<point x="528" y="1270"/>
			<point x="814" y="1270" type="qcurve" smooth="yes"/>
			<point x="1028" y="1270"/>
			<point x="1214" y="1113"/>
			<point x="1200" y="1002" type="qcurve" smooth="yes"/>
			<point x="1186" y="892"/>
			<point x="980" y="729"/>
			<point x="749" y="652" type="qcurve"/>
			<point x="628" y="733" type="line"/>
			<point x="755" y="789"/>
			<point x="924" y="906"/>
			<point x="926" y="996" type="qcurve" smooth="yes"/>
			<point x="929" y="1057"/>
			<point x="858" y="1127"/>
			<point x="791" y="1127" type="qcurve" smooth="yes"/>
			<point x="696" y="1127"/>
			<point x="599" y="1045"/>
			<point x="596" y="977" type="qcurve" smooth="yes"/>
			<point x="592" y="906"/>
			<point x="769" y="802"/>
			<point x="863" y="743" type="qcurve" smooth="yes"/>
			<point x="1031" y="642"/>
			<point x="1141" y="487"/>
			<point x="1135" y="379" type="qcurve" smooth="yes"/>
			<point x="1129" y="213"/>
			<point x="788" y="-31"/>
			<point x="474" y="-31" type="qcurve" smooth="yes"/>
			<point x="245" y="-31"/>
			<point x="8" y="134"/>
		</contour>
	</outline>
</glyph>
<glyph name="engn" format="2">
	<advance width="1294"/>
	<outline>
		<contour>
			<point x="48" y="6" type="line"/>
			<point x="39" y="133" type="line"/>
			<point x="127" y="495" type="line"/>
			<point x="187" y="803" type="line"/>
			<point x="58" y="799" type="line"/>
			<point x="66" y="939" type="line"/>
			<point x="414" y="1047" type="line"/>
			<point x="626" y="1047" type="line"/>
			<point x="656" y="784" type="line"/>
			<point x="623" y="636" type="line"/>
			<point x="525" y="169" type="line"/>
			<point x="551" y="25" type="line"/>
		</contour>
		<contour>
			<point x="598" y="814" type="line"/>
			<point x="683" y="960"/>
			<point x="814" y="1058"/>
			<point x="935" y="1058" type="qcurve" smooth="yes"/>
			<point x="1106" y="1058"/>
			<point x="1251" y="834"/>
			<point x="1217" y="677" type="qcurve" smooth="yes"/>
			<point x="1076" y="0" type="line"/>
			<point x="608" y="0" type="line"/>
			<point x="746" y="723" type="line" smooth="yes"/>
			<point x="756" y="776"/>
			<point x="723" y="822"/>
			<point x="708" y="822" type="qcurve" smooth="yes"/>
			<point x="696" y="822"/>
			<point x="665" y="781"/>
			<point x="634" y="723" type="qcurve"/>
		</contour>
	</outline>
</glyph>
<glyph name="engtail" format="2">
	<advance width="458"/>
	<outline>
		<contour>
			<point x="-496" y="-337" type="qcurve"/>
			<point x="-395" y="-238" type="line"/>
			<point x="-361" y="-279"/>
			<point x="-304" y="-305"/>
			<point x="-263" y="-305" type="qcurve" smooth="yes"/>
			<point x="-212" y="-305"/>
			<point x="-130" y="-246"/>
			<point x="-115" y="-165" type="qcurve" smooth="yes"/>
			<point x="-56" y="143" type="line"/>
			<point x="27" y="196" type="line"/>
			<point x="423" y="196" type="line"/>
			<point x="349" y="-198" type="line" smooth="yes"/>
			<point x="324" y="-330"/>
			<point x="117" y="-503"/>
			<point x="-97" y="-503" type="qcurve" smooth="yes"/>
			<point x="-282" y="-503"/>
			<point x="-461" y="-407"/>
		</contour>
	</outline>
</glyph>
<glyph name="five.lc" format="2">
	<advance width="939"/>
	<outline>
		<contour>
			<point x="500" y="54" type="qcurve" smooth="yes"/>
			<point x="504" y="187"/>
			<point x="331" y="294"/>
			<point x="199" y="293" type="qcurve" smooth="yes"/>
			<point x="121" y="295" type="line"/>
			<point x="65" y="393" type="line"/>
			<point x="230" y="979" type="line"/>
			<point x="261" y="1010" type="line"/>
			<point x="993" y="1010" type="line"/>
			<point x="940" y="737" type="line"/>
			<point x="348" y="737" type="line"/>
			<point x="337" y="727" type="line"/>
			<point x="292" y="572"/>
			<point x="261" y="489"/>
			<point x="231" y="452" type="qcurve"/>
			<point x="434" y="499" type="line"/>
			<point x="684" y="497"/>
			<point x="929" y="299"/>
			<point x="923" y="121" type="qcurve" smooth="yes"/>
			<point x="916" y="-129"/>
			<point x="473" y="-388"/>
			<point x="172" y="-388" type="qcurve" smooth="yes"/>
			<point x="90" y="-388"/>
			<point x="-85" y="-364"/>
			<point x="-126" y="-341" type="qcurve"/>
			<point x="-67" y="-210" type="line"/>
			<point x="-36" y="-221"/>
			<point x="73" y="-232"/>
			<point x="137" y="-232" type="qcurve" smooth="yes"/>
			<point x="287" y="-232"/>
			<point x="495" y="-84"/>
		</contour>
	</outline>
</glyph>
<glyph name="four.lc" format="2">
	<advance width="1081"/>
	<outline>
		<contour>
			<point x="-108" y="-12" type="line"/>
			<point x="-107" y="125" type="line"/>
			<point x="796" y="1037" type="line"/>
			<point x="1030" y="939" type="line"/>
			<point x="1056" y="897" type="line"/>
			<point x="907" y="107" type="line"/>
			<point x="898" y="76" type="line"/>
			<point x="835" y="-230" type="line"/>
			<point x="834" y="-376" type="line"/>
			<point x="420" y="-424" type="line"/>
			<point x="395" y="-364" type="line"/>
			<point x="485" y="73" type="line"/>
			<point x="494" y="107" type="line"/>
			<point x="573" y="575" type="line"/>
			<point x="157" y="172" type="line"/>
			<point x="162" y="163" type="line"/>
			<point x="725" y="163" type="line"/>
			<point x="1084" y="163" type="line"/>
			<point x="1052" y="-13" type="line"/>
			<point x="712" y="-27" type="line"/>
		</contour>
	</outline>
</glyph>
<glyph name="gravecomb.case" format="2">
	<advance width="1024"/>
	<outline>
		<contour>
			<point x="508" y="1783" type="line" smooth="yes"/>
			<point x="455" y="1816"/>
			<point x="411" y="1896"/>
			<point x="411" y="1938" type="qcurve" smooth="yes"/>
			<point x="411" y="1980"/>
			<point x="490" y="2052"/>
			<point x="539" y="2052" type="qcurve" smooth="yes"/>
			<point x="587" y="2052"/>
			<point x="674" y="1979"/>
			<point x="722" y="1912" type="qcurve" smooth="yes"/>
			<point x="888" y="1685" type="line"/>
			<point x="803" y="1601" type="line"/>
		</contour>
	</outline>
</glyph>
<glyph name="gravecombstack.case" format="2">
	<advance width="1024"/>
	<outline>
		<contour>
			<point x="429" y="1977" type="qcurve" smooth="yes"/>
			<point x="436" y="2011"/>
			<point x="519" y="2077"/>
			<point x="572" y="2070" type="qcurve" smooth="yes"/>
			<point x="617" y="2063"/>
			<point x="695" y="1982"/>
			<point x="721" y="1941" type="qcurve" smooth="yes"/>
			<point x="869" y="1705" type="line"/>
			<point x="787" y="1628" type="line"/>
			<point x="505" y="1819" type="line" smooth="yes"/>
			<point x="454" y="1853"/>
			<point x="423" y="1931"/>
		</contour>
	</outline>
</glyph>
<glyph name="hookabovecomb.case" format="2">
	<advance width="1024"/>
	<outline>
		<contour>
			<point x="456" y="1649" type="line"/>
			<point x="500" y="1824" type="line"/>
			<point x="591" y="1897" type="line"/>
			<point x="616" y="1889"/>
			<point x="675" y="1882"/>
			<point x="693" y="1882" type="qcurve" smooth="yes"/>
			<point x="746" y="1882"/>
			<point x="822" y="1939"/>
			<point x="822" y="1972" type="qcurve" smooth="yes"/>
			<point x="822" y="2009"/>
			<point x="768" y="2041"/>
			<point x="707" y="2041" type="qcurve" smooth="yes"/>
			<point x="654" y="2041"/>
			<point x="549" y="2019"/>
			<point x="490" y="1997" type="qcurve"/>
			<point x="464" y="2149" type="line"/>
			<point x="515" y="2174"/>
			<point x="706" y="2212"/>
			<point x="763" y="2212" type="qcurve" smooth="yes"/>
			<point x="930" y="2212"/>
			<point x="1064" y="2083"/>
			<point x="1060" y="1993" type="qcurve" smooth="yes"/>
			<point x="1055" y="1877"/>
			<point x="891" y="1738"/>
			<point x="768" y="1738" type="qcurve" smooth="yes"/>
			<point x="725" y="1738"/>
			<point x="674" y="1744"/>
			<point x="662" y="1746" type="qcurve"/>
			<point x="632" y="1649" type="line"/>
		</contour>
	</outline>
</glyph>
<glyph name="hookabovecombstack.case" format="2">
	<advance width="1024"/>
	<outline>
		<contour>
			<point x="540" y="1623" type="line"/>
			<point x="575" y="1818" type="line"/>
			<point x="664" y="1871" type="line"/>
			<point x="687" y="1864"/>
			<point x="735" y="1857"/>
			<point x="753" y="1857" type="qcurve" smooth="yes"/>
			<point x="804" y="1857"/>
			<point x="880" y="1910"/>
			<point x="883" y="1955" type="qcurve" smooth="yes"/>
			<point x="885" y="1992"/>
			<point x="828" y="2028"/>
			<point x="770" y="2028" type="qcurve" smooth="yes"/>
			<point x="728" y="2028"/>
			<point x="642" y="2003"/>
			<point x="583" y="1980" type="qcurve"/>
			<point x="559" y="2120" type="line"/>
			<point x="617" y="2147"/>
			<point x="769" y="2188"/>
			<point x="824" y="2188" type="qcurve" smooth="yes"/>
			<point x="986" y="2188"/>
			<point x="1114" y="2067"/>
			<point x="1116" y="1986" type="qcurve" smooth="yes"/>
			<point x="1116" y="1860"/>
			<point x="956" y="1722"/>
			<point x="826" y="1722" type="qcurve" smooth="yes"/>
			<point x="784" y="1722"/>
			<point x="733" y="1727"/>
			<point x="715" y="1731" type="qcurve"/>
			<point x="696" y="1623" type="line"/>
		</contour>
	</outline>
</glyph>
<glyph name="horizontalbarH" format="2">
	<advance width="1672"/>
	<outline>
		<contour>
			<point x="1625" y="1070" type="line"/>
			<point x="684" y="1070" type="line"/>
			<point x="684" y="1070" type="line"/>
			<point x="661" y="1070" type="line"/>
			<point x="675" y="1202" type="line"/>
			<point x="698" y="1202" type="line"/>
			<point x="698" y="1202" type="line"/>
			<point x="1649" y="1202" type="line"/>
		</contour>
		<contour>
			<point x="198" y="1071" type="line"/>
			<point x="223" y="1202" type="line"/>
			<point x="655" y="1202" type="line"/>
			<point x="655" y="1202" type="line"/>
			<point x="675" y="1202" type="line"/>
			<point x="661" y="1070" type="line"/>
			<point x="641" y="1070" type="line"/>
			<point x="641" y="1071" type="line"/>
		</contour>
	</outline>
</glyph>
<glyph name="horizontalbarlc" format="2">
	<advance width="1046"/>
	<outline>
		<contour>
			<point x="483" y="641" type="line"/>
			<point x="101" y="641" type="line"/>
			<point x="144" y="792" type="line"/>
			<point x="525" y="792" type="line"/>
			<point x="950" y="792" type="line"/>
			<point x="918" y="641" type="line"/>
		</contour>
	</outline>
</glyph>
<glyph name="horncomb.case" format="2">
	<advance width="1024"/>
	<outline>
		<contour>
			<point x="364" y="1498" type="line"/>
			<point x="402" y="1495"/>
			<point x="443" y="1493"/>
			<point x="490" y="1493" type="qcurve" smooth="yes"/>
			<point x="578" y="1493"/>
			<point x="643" y="1556"/>
			<point x="653" y="1616" type="qcurve" smooth="yes"/>
			<point x="655" y="1643"/>
			<point x="654" y="1716"/>
			<point x="646" y="1739" type="qcurve"/>
			<point x="788" y="1739" type="line"/>
			<point x="796" y="1716"/>
			<point x="808" y="1652"/>
			<point x="808" y="1603" type="qcurve" smooth="yes"/>
			<point x="808" y="1501"/>
			<point x="658" y="1348"/>
			<point x="500" y="1348" type="qcurve" smooth="yes"/>
			<point x="468" y="1348"/>
			<point x="404" y="1355"/>
			<point x="341" y="1375" type="qcurve"/>
		</contour>
	</outline>
</glyph>
<glyph name="horncomb" format="2">
	<advance width="1024"/>
	<outline>
		<contour>
			<point x="4" y="1048" type="line"/>
			<point x="35" y="1046"/>
			<point x="68" y="1044"/>
			<point x="102" y="1044" type="qcurve" smooth="yes"/>
			<point x="172" y="1044"/>
			<point x="252" y="1090"/>
			<point x="252" y="1141" type="qcurve" smooth="yes"/>
			<point x="252" y="1176"/>
			<point x="241" y="1244"/>
			<point x="231" y="1276" type="qcurve"/>
			<point x="386" y="1276" type="line"/>
			<point x="395" y="1246"/>
			<point x="414" y="1174"/>
			<point x="414" y="1122" type="qcurve" smooth="yes"/>
			<point x="414" y="1033"/>
			<point x="293" y="901"/>
			<point x="149" y="901" type="qcurve" smooth="yes"/>
			<point x="105" y="901"/>
			<point x="28" y="912"/>
			<point x="-21" y="929" type="qcurve"/>
		</contour>
	</outline>
</glyph>
<glyph name="hungarumlautcomb.case" format="2">
	<advance width="1024"/>
	<outline>
		<contour>
			<point x="820" y="1951" type="qcurve" smooth="yes"/>
			<point x="823" y="1911"/>
			<point x="784" y="1834"/>
			<point x="739" y="1798" type="qcurve" smooth="yes"/>
			<point x="485" y="1593" type="line"/>
			<point x="409" y="1653" type="line"/>
			<point x="531" y="1909" type="line" smooth="yes"/>
			<point x="560" y="1970"/>
			<point x="652" y="2052"/>
			<point x="696" y="2052" type="qcurve" smooth="yes"/>
			<point x="742" y="2052"/>
			<point x="816" y="1990"/>
		</contour>
		<contour>
			<point x="1188" y="1953" type="qcurve" smooth="yes"/>
			<point x="1191" y="1913"/>
			<point x="1152" y="1837"/>
			<point x="1108" y="1801" type="qcurve" smooth="yes"/>
			<point x="854" y="1595" type="line"/>
			<point x="778" y="1655" type="line"/>
			<point x="900" y="1912" type="line" smooth="yes"/>
			<point x="929" y="1973"/>
			<point x="1020" y="2051"/>
			<point x="1065" y="2054" type="qcurve" smooth="yes"/>
			<point x="1111" y="2057"/>
			<point x="1185" y="1992"/>
		</contour>
	</outline>
</glyph>
<glyph name="macronbelowcomb.case" format="2">
	<advance width="1024"/>
	<outline>
		<contour>
			<point x="-58" y="-417" type="line"/>
			<point x="-20" y="-223" type="line"/>
			<point x="684" y="-223" type="line"/>
			<point x="646" y="-417" type="line"/>
		</contour>
	</outline>
</glyph>
<glyph name="macronbelowcomb" format="2">
	<advance width="1024"/>
	<outline>
		<contour>
			<point x="44" y="-408" type="line"/>
			<point x="89" y="-222" type="line"/>
			<point x="694" y="-222" type="line"/>
			<point x="649" y="-408" type="line"/>
		</contour>
	</outline>
</glyph>
<glyph name="macroncomb.case" format="2">
	<advance width="1024"/>
	<outline>
		<contour>
			<point x="323" y="1654" type="line"/>
			<point x="361" y="1848" type="line"/>
			<point x="1065" y="1848" type="line"/>
			<point x="1027" y="1654" type="line"/>
		</contour>
	</outline>
</glyph>
<glyph name="nine.lc" format="2">
	<advance width="1206"/>
	<outline>
		<contour>
			<point x="1174" y="576" type="qcurve" smooth="yes"/>
			<point x="1136" y="173"/>
			<point x="495" y="-343"/>
			<point x="50" y="-413" type="qcurve"/>
			<point x="18" y="-276" type="line"/>
			<point x="300" y="-190"/>
			<point x="684" y="242"/>
			<point x="729" y="599" type="qcurve" smooth="yes"/>
			<point x="747" y="748"/>
			<point x="718" y="903"/>
			<point x="668" y="908" type="qcurve" smooth="yes"/>
			<point x="594" y="913"/>
			<point x="491" y="779"/>
			<point x="463" y="621" type="qcurve" smooth="yes"/>
			<point x="449" y="526"/>
			<point x="466" y="409"/>
			<point x="518" y="409" type="qcurve" smooth="yes"/>
			<point x="541" y="409"/>
			<point x="587" y="423"/>
			<point x="619" y="450" type="qcurve"/>
			<point x="623" y="337" type="line"/>
			<point x="587" y="302"/>
			<point x="451" y="252"/>
			<point x="366" y="252" type="qcurve" smooth="yes"/>
			<point x="192" y="252"/>
			<point x="26" y="446"/>
			<point x="44" y="592" type="qcurve" smooth="yes"/>
			<point x="73" y="811"/>
			<point x="441" y="1044"/>
			<point x="695" y="1044" type="qcurve" smooth="yes"/>
			<point x="940" y="1044"/>
			<point x="1195" y="790"/>
		</contour>
	</outline>
</glyph>
<glyph name="ogonekcomb.case" format="2">
	<advance width="1024"/>
	<outline>
		<contour>
			<point x="361" y="-230" type="qcurve" smooth="yes"/>
			<point x="356" y="-281"/>
			<point x="421" y="-338"/>
			<point x="475" y="-338" type="qcurve" smooth="yes"/>
			<point x="532" y="-338"/>
			<point x="619" y="-303"/>
			<point x="677" y="-262" type="qcurve"/>
			<point x="722" y="-350" type="line"/>
			<point x="678" y="-395"/>
			<point x="490" y="-484"/>
			<point x="378" y="-484" type="qcurve" smooth="yes"/>
			<point x="256" y="-484"/>
			<point x="121" y="-384"/>
			<point x="128" y="-294" type="qcurve" smooth="yes"/>
			<point x="137" y="-180"/>
			<point x="294" y="-25"/>
			<point x="397" y="36" type="qcurve" smooth="yes"/>
			<point x="429" y="56" type="line"/>
			<point x="513" y="2" type="line"/>
			<point x="495" y="-16" type="line" smooth="yes"/>
			<point x="418" y="-89"/>
			<point x="367" y="-183"/>
		</contour>
	</outline>
</glyph>
<glyph name="one.lc" format="2">
	<advance width="860"/>
	<outline>
		<contour>
			<point x="219" y="30" type="line"/>
			<point x="241" y="86"/>
			<point x="278" y="199"/>
			<point x="300" y="297" type="qcurve" smooth="yes"/>
			<point x="357" y="544" type="line"/>
			<point x="386" y="714" type="line"/>
			<point x="62" y="588" type="line"/>
			<point x="19" y="748" type="line"/>
			<point x="739" y="1045" type="line"/>
			<point x="912" y="944" type="line"/>
			<point x="883" y="902"/>
			<point x="848" y="776"/>
			<point x="844" y="754" type="qcurve" smooth="yes"/>
			<point x="774" y="467" type="line"/>
			<point x="712" y="133" type="line"/>
			<point x="364" y="-46" type="line"/>
		</contour>
	</outline>
</glyph>
<glyph name="ringcomb.case" format="2">
	<advance width="1024"/>
	<outline>
		<contour>
			<point x="333" y="1855" type="qcurve" smooth="yes"/>
			<point x="333" y="1968"/>
			<point x="498" y="2127"/>
			<point x="614" y="2127" type="qcurve" smooth="yes"/>
			<point x="731" y="2127"/>
			<point x="896" y="1968"/>
			<point x="896" y="1855" type="qcurve" smooth="yes"/>
			<point x="896" y="1742"/>
			<point x="731" y="1584"/>
			<point x="614" y="1584" type="qcurve" smooth="yes"/>
			<point x="498" y="1584"/>
			<point x="333" y="1742"/>
		</contour>
		<contour>
			<point x="482" y="1855" type="qcurve" smooth="yes"/>
			<point x="482" y="1792"/>
			<point x="551" y="1723"/>
			<point x="614" y="1723" type="qcurve" smooth="yes"/>
			<point x="677" y="1723"/>
			<point x="746" y="1791"/>
			<point x="746" y="1855" type="qcurve" smooth="yes"/>
			<point x="746" y="1917"/>
			<point x="677" y="1987"/>
			<point x="614" y="1987" type="qcurve" smooth="yes"/>
			<point x="551" y="1987"/>
			<point x="482" y="1919"/>
		</contour>
	</outline>
</glyph>
<glyph name="seven.lc" format="2">
	<advance width="1049"/>
	<outline>
		<contour>
			<point x="23" y="579" type="line"/>
			<point x="203" y="1006" type="line"/>
			<point x="1114" y="1006" type="line"/>
			<point x="1141" y="941" type="line"/>
			<point x="883" y="555"/>
			<point x="515" y="-78"/>
			<point x="428" y="-335" type="qcurve"/>
			<point x="97" y="-405" type="line"/>
			<point x="62" y="-337" type="line"/>
			<point x="184" y="-60"/>
			<point x="534" y="442"/>
			<point x="776" y="705" type="qcurve"/>
			<point x="766" y="724" type="line"/>
			<point x="272" y="724" type="line"/>
			<point x="170" y="579" type="line"/>
		</contour>
	</outline>
</glyph>
<glyph name="six.lc" format="2">
	<advance width="1167"/>
	<outline>
		<contour>
			<point x="28" y="440" type="qcurve" smooth="yes"/>
			<point x="53" y="769"/>
			<point x="702" y="1218"/>
			<point x="1108" y="1273" type="qcurve"/>
			<point x="1147" y="1129" type="line"/>
			<point x="884" y="1070"/>
			<point x="503" y="704"/>
			<point x="475" y="415" type="qcurve" smooth="yes"/>
			<point x="460" y="265"/>
			<point x="490" y="114"/>
			<point x="551" y="106" type="qcurve" smooth="yes"/>
			<point x="623" y="98"/>
			<point x="703" y="227"/>
			<point x="722" y="383" type="qcurve" smooth="yes"/>
			<point x="734" y="480"/>
			<point x="712" y="587"/>
			<point x="660" y="587" type="qcurve" smooth="yes"/>
			<point x="638" y="587"/>
			<point x="591" y="573"/>
			<point x="559" y="546" type="qcurve"/>
			<point x="550" y="659" type="line"/>
			<point x="586" y="694"/>
			<point x="720" y="745"/>
			<point x="805" y="745" type="qcurve" smooth="yes"/>
			<point x="979" y="745"/>
			<point x="1151" y="559"/>
			<point x="1137" y="412" type="qcurve" smooth="yes"/>
			<point x="1118" y="193"/>
			<point x="772" y="-31"/>
			<point x="519" y="-31" type="qcurve" smooth="yes"/>
			<point x="271" y="-31"/>
			<point x="9" y="224"/>
		</contour>
	</outline>
</glyph>
<glyph name="tildecomb.case" format="2">
	<advance width="1024"/>
	<outline>
		<contour>
			<point x="319" y="1765" type="line"/>
			<point x="366" y="1853"/>
			<point x="516" y="1975"/>
			<point x="590" y="1975" type="qcurve" smooth="yes"/>
			<point x="629" y="1975"/>
			<point x="691" y="1945"/>
			<point x="724" y="1916" type="qcurve" smooth="yes"/>
			<point x="751" y="1895"/>
			<point x="819" y="1846"/>
			<point x="858" y="1846" type="qcurve" smooth="yes"/>
			<point x="895" y="1846"/>
			<point x="972" y="1879"/>
			<point x="999" y="1919" type="qcurve"/>
			<point x="1058" y="1830" type="line"/>
			<point x="1006" y="1737"/>
			<point x="868" y="1628"/>
			<point x="806" y="1628" type="qcurve" smooth="yes"/>
			<point x="762" y="1628"/>
			<point x="680" y="1680"/>
			<point x="656" y="1699" type="qcurve" smooth="yes"/>
			<point x="624" y="1723"/>
			<point x="565" y="1757"/>
			<point x="537" y="1757" type="qcurve" smooth="yes"/>
			<point x="493" y="1757"/>
			<point x="405" y="1692"/>
			<point x="384" y="1661" type="qcurve"/>
		</contour>
	</outline>
</glyph>
<glyph name="tildecombstack.case" format="2">
	<advance width="1024"/>
	<outline>
		<contour>
			<point x="362" y="1766" type="line"/>
			<point x="408" y="1846"/>
			<point x="551" y="1965"/>
			<point x="626" y="1965" type="qcurve" smooth="yes"/>
			<point x="667" y="1965"/>
			<point x="726" y="1943"/>
			<point x="764" y="1916" type="qcurve" smooth="yes"/>
			<point x="792" y="1895"/>
			<point x="862" y="1856"/>
			<point x="902" y="1856" type="qcurve" smooth="yes"/>
			<point x="940" y="1856"/>
			<point x="1028" y="1898"/>
			<point x="1056" y="1938" type="qcurve"/>
			<point x="1094" y="1846" type="line"/>
			<point x="1041" y="1753"/>
			<point x="924" y="1658"/>
			<point x="861" y="1658" type="qcurve" smooth="yes"/>
			<point x="808" y="1658"/>
			<point x="722" y="1702"/>
			<point x="696" y="1719" type="qcurve" smooth="yes"/>
			<point x="658" y="1743"/>
			<point x="602" y="1767"/>
			<point x="574" y="1767" type="qcurve" smooth="yes"/>
			<point x="528" y="1767"/>
			<point x="431" y="1701"/>
			<point x="409" y="1670" type="qcurve"/>
		</contour>
	</outline>
</glyph>
<glyph name="two.lc" format="2">
	<advance width="974"/>
	<outline>
		<contour>
			<point x="-48" y="-5" type="qcurve"/>
			<point x="-121" y="109" type="line"/>
			<point x="-85" y="136"/>
			<point x="-53" y="163"/>
			<point x="-16" y="190" type="qcurve" smooth="yes"/>
			<point x="138" y="317"/>
			<point x="489" y="583"/>
			<point x="493" y="702" type="qcurve" smooth="yes"/>
			<point x="495" y="777"/>
			<point x="420" y="841"/>
			<point x="360" y="841" type="qcurve"/>
			<point x="291" y="841"/>
			<point x="162" y="793"/>
			<point x="106" y="752" type="qcurve"/>
			<point x="38" y="875" type="line"/>
			<point x="111" y="949"/>
			<point x="331" y="1044"/>
			<point x="502" y="1044" type="qcurve"/>
			<point x="709" y="1044"/>
			<point x="932" y="890"/>
			<point x="939" y="783" type="qcurve" smooth="yes"/>
			<point x="952" y="592"/>
			<point x="604" y="371"/>
			<point x="381" y="283" type="qcurve"/>
			<point x="382" y="282" type="line"/>
			<point x="394" y="282"/>
			<point x="423" y="283"/>
			<point x="435" y="284" type="qcurve"/>
			<point x="560" y="264"/>
			<point x="640" y="252"/>
			<point x="756" y="233" type="qcurve"/>
			<point x="831" y="356" type="line"/>
			<point x="953" y="332" type="line"/>
			<point x="829" y="-30" type="line"/>
			<point x="714" y="-5"/>
			<point x="446" y="36"/>
			<point x="338" y="36" type="qcurve" smooth="yes"/>
			<point x="266" y="36"/>
			<point x="8" y="13"/>
		</contour>
	</outline>
</glyph>
<glyph name="zero.lc" format="2">
	<advance width="1280"/>
	<outline>
		<contour>
			<point x="51" y="563" type="qcurve" smooth="yes"/>
			<point x="93" y="788"/>
			<point x="465" y="1051"/>
			<point x="749" y="1046" type="qcurve" smooth="yes"/>
			<point x="1000" y="1042"/>
			<point x="1285" y="721"/>
			<point x="1238" y="468" type="qcurve" smooth="yes"/>
			<point x="1194" y="241"/>
			<point x="801" y="-45"/>
			<point x="521" y="-33" type="qcurve" smooth="yes"/>
			<point x="249" y="-21"/>
			<point x="2" y="302"/>
		</contour>
		<contour>
			<point x="541" y="530" type="qcurve" smooth="yes"/>
			<point x="509" y="358"/>
			<point x="503" y="126"/>
			<point x="567" y="118" type="qcurve" smooth="yes"/>
			<point x="634" y="111"/>
			<point x="717" y="328"/>
			<point x="747" y="497" type="qcurve" smooth="yes"/>
			<point x="776" y="652"/>
			<point x="771" y="874"/>
			<point x="708" y="881" type="qcurve" smooth="yes"/>
			<point x="642" y="888"/>
			<point x="566" y="684"/>
		</contour>
	</outline>
</glyph>
